<?xml version="1.0" encoding="UTF-8" standalone="no"?>
<svg
   xmlns:dc="http://purl.org/dc/elements/1.1/"
   xmlns:cc="http://creativecommons.org/ns#"
   xmlns:rdf="http://www.w3.org/1999/02/22-rdf-syntax-ns#"
   xmlns:svg="http://www.w3.org/2000/svg"
   xmlns="http://www.w3.org/2000/svg"
   viewBox="0 0 1281.25 476.25"
   height="476.25"
   width="1281.25"
   xml:space="preserve"
   version="1.1"
   id="svg2"><metadata
     id="metadata8"><rdf:RDF><cc:Work
         rdf:about=""><dc:format>image/svg+xml</dc:format><dc:type
           rdf:resource="http://purl.org/dc/dcmitype/StillImage" /></cc:Work></rdf:RDF></metadata><defs
     id="defs6"><clipPath
       id="clipPath18"
       clipPathUnits="userSpaceOnUse"><path
         id="path20"
         d="m 0,0.832031 10250,0 0,3809.169969 -10250,0 L 0,0.832031 Z" /></clipPath><clipPath
       id="clipPath212"
       clipPathUnits="userSpaceOnUse"><path
         id="path214"
         d="m 1333.33,3524.17 7951.67,0 0,-3105.002 -7951.67,0 0,3105.002 z" /></clipPath><clipPath
       id="clipPath226"
       clipPathUnits="userSpaceOnUse"><path
         id="path228"
         d="m 0,0 0,3810 10250,0 L 10250,0 0,0 Z" /></clipPath><clipPath
       id="clipPath270"
       clipPathUnits="userSpaceOnUse"><path
         id="path272"
         d="m 1883.33,1913.33 1387.5,0 0,-747.5 -1387.5,0 0,747.5 z" /></clipPath><clipPath
       id="clipPath280"
       clipPathUnits="userSpaceOnUse"><path
         id="path282"
         d="m 0,0 0,3810 10250,0 L 10250,0 0,0 Z" /></clipPath><clipPath
       id="clipPath294"
       clipPathUnits="userSpaceOnUse"><path
         id="path296"
         d="m 1883.33,1913.33 1387.5,0 0,-747.5 -1387.5,0 0,747.5 z" /></clipPath><clipPath
       id="clipPath304"
       clipPathUnits="userSpaceOnUse"><path
         id="path306"
         d="m 0,0 0,3810 10250,0 L 10250,0 0,0 Z" /></clipPath><clipPath
       id="clipPath318"
       clipPathUnits="userSpaceOnUse"><path
         id="path320"
         d="m 1883.33,1913.33 1387.5,0 0,-747.5 -1387.5,0 0,747.5 z" /></clipPath></defs><g
     transform="matrix(1.25,0,0,-1.25,0,476.25)"
     id="g10"><g
       transform="scale(0.1,0.1)"
       id="g12"><g
         id="g14"><g
           clip-path="url(#clipPath18)"
           id="g16"><path
             id="path22"
             style="fill:#ffffff;fill-opacity:1;fill-rule:nonzero;stroke:none"
             d="m 0,0.832031 10250,0 0,3809.169969 -10250,0 L 0,0.832031 Z" /><path
             id="path24"
             style="fill:#ffffff;fill-opacity:1;fill-rule:evenodd;stroke:none"
             d="m 1333.33,420 7950.84,0 0,3104.17 -7950.84,0 0,-3104.17 z" /><path
             id="path26"
             style="fill:none;stroke:#ffffff;stroke-width:5;stroke-linecap:butt;stroke-linejoin:round;stroke-miterlimit:10;stroke-dasharray:none;stroke-opacity:1"
             d="m 1333.33,420 0,3104.17 7950.84,0 0,-3104.17 -7950.84,0" /><path
             id="path28"
             style="fill:none;stroke:#000000;stroke-width:5;stroke-linecap:butt;stroke-linejoin:round;stroke-miterlimit:10;stroke-dasharray:none;stroke-opacity:1"
             d="m 1333.33,420 7950.84,0" /><path
             id="path30"
             style="fill:none;stroke:#000000;stroke-width:5;stroke-linecap:butt;stroke-linejoin:round;stroke-miterlimit:10;stroke-dasharray:none;stroke-opacity:1"
             d="m 1333.33,420 0,3104.17" /><path
             id="path32"
             style="fill:none;stroke:#000000;stroke-width:5;stroke-linecap:butt;stroke-linejoin:round;stroke-miterlimit:10;stroke-dasharray:none;stroke-opacity:1"
             d="m 1333.33,420 0,80" /><g
             transform="scale(10,10)"
             id="g34"><text
               id="text36"
               style="font-variant:normal;font-weight:normal;font-size:10px;font-family:Helvetica;-inkscape-font-specification:Helvetica;writing-mode:lr-tb;fill:#000000;fill-opacity:1;fill-rule:nonzero;stroke:none"
               transform="matrix(1,0,0,-1,130.583,29.9168)"><tspan
                 id="tspan38"
                 y="0"
                 x="0">0</tspan></text>
</g><path
             id="path40"
             style="fill:none;stroke:#000000;stroke-width:5;stroke-linecap:butt;stroke-linejoin:round;stroke-miterlimit:10;stroke-dasharray:none;stroke-opacity:1"
             d="m 2090,420 0,80" /><g
             transform="scale(10,10)"
             id="g42"><text
               id="text44"
               style="font-variant:normal;font-weight:normal;font-size:10px;font-family:Helvetica;-inkscape-font-specification:Helvetica;writing-mode:lr-tb;fill:#000000;fill-opacity:1;fill-rule:nonzero;stroke:none"
               transform="matrix(1,0,0,-1,203.5,29.9168)"><tspan
                 id="tspan46"
                 y="0"
                 x="0 5.5599999">10</tspan></text>
</g><path
             id="path48"
             style="fill:none;stroke:#000000;stroke-width:5;stroke-linecap:butt;stroke-linejoin:round;stroke-miterlimit:10;stroke-dasharray:none;stroke-opacity:1"
             d="m 2847.5,420 0,80" /><g
             transform="scale(10,10)"
             id="g50"><text
               id="text52"
               style="font-variant:normal;font-weight:normal;font-size:10px;font-family:Helvetica;-inkscape-font-specification:Helvetica;writing-mode:lr-tb;fill:#000000;fill-opacity:1;fill-rule:nonzero;stroke:none"
               transform="matrix(1,0,0,-1,279.25,29.9168)"><tspan
                 id="tspan54"
                 y="0"
                 x="0 5.5599999">20</tspan></text>
</g><path
             id="path56"
             style="fill:none;stroke:#000000;stroke-width:5;stroke-linecap:butt;stroke-linejoin:round;stroke-miterlimit:10;stroke-dasharray:none;stroke-opacity:1"
             d="m 3605,420 0,80" /><g
             transform="scale(10,10)"
             id="g58"><text
               id="text60"
               style="font-variant:normal;font-weight:normal;font-size:10px;font-family:Helvetica;-inkscape-font-specification:Helvetica;writing-mode:lr-tb;fill:#000000;fill-opacity:1;fill-rule:nonzero;stroke:none"
               transform="matrix(1,0,0,-1,355,29.9168)"><tspan
                 id="tspan62"
                 y="0"
                 x="0 5.5599999">30</tspan></text>
</g><path
             id="path64"
             style="fill:none;stroke:#000000;stroke-width:5;stroke-linecap:butt;stroke-linejoin:round;stroke-miterlimit:10;stroke-dasharray:none;stroke-opacity:1"
             d="m 4361.67,420 0,80" /><g
             transform="scale(10,10)"
             id="g66"><text
               id="text68"
               style="font-variant:normal;font-weight:normal;font-size:10px;font-family:Helvetica;-inkscape-font-specification:Helvetica;writing-mode:lr-tb;fill:#000000;fill-opacity:1;fill-rule:nonzero;stroke:none"
               transform="matrix(1,0,0,-1,430.667,29.9168)"><tspan
                 id="tspan70"
                 y="0"
                 x="0 5.5599999">40</tspan></text>
</g><path
             id="path72"
             style="fill:none;stroke:#000000;stroke-width:5;stroke-linecap:butt;stroke-linejoin:round;stroke-miterlimit:10;stroke-dasharray:none;stroke-opacity:1"
             d="m 5119.17,420 0,80" /><g
             transform="scale(10,10)"
             id="g74"><text
               id="text76"
               style="font-variant:normal;font-weight:normal;font-size:10px;font-family:Helvetica;-inkscape-font-specification:Helvetica;writing-mode:lr-tb;fill:#000000;fill-opacity:1;fill-rule:nonzero;stroke:none"
               transform="matrix(1,0,0,-1,506.417,29.9168)"><tspan
                 id="tspan78"
                 y="0"
                 x="0 5.5599999">50</tspan></text>
</g><path
             id="path80"
             style="fill:none;stroke:#000000;stroke-width:5;stroke-linecap:butt;stroke-linejoin:round;stroke-miterlimit:10;stroke-dasharray:none;stroke-opacity:1"
             d="m 5876.67,420 0,80" /><g
             transform="scale(10,10)"
             id="g82"><text
               id="text84"
               style="font-variant:normal;font-weight:normal;font-size:10px;font-family:Helvetica;-inkscape-font-specification:Helvetica;writing-mode:lr-tb;fill:#000000;fill-opacity:1;fill-rule:nonzero;stroke:none"
               transform="matrix(1,0,0,-1,582.167,29.9168)"><tspan
                 id="tspan86"
                 y="0"
                 x="0 5.5599999">60</tspan></text>
</g><path
             id="path88"
             style="fill:none;stroke:#000000;stroke-width:5;stroke-linecap:butt;stroke-linejoin:round;stroke-miterlimit:10;stroke-dasharray:none;stroke-opacity:1"
             d="m 6633.33,420 0,80" /><g
             transform="scale(10,10)"
             id="g90"><text
               id="text92"
               style="font-variant:normal;font-weight:normal;font-size:10px;font-family:Helvetica;-inkscape-font-specification:Helvetica;writing-mode:lr-tb;fill:#000000;fill-opacity:1;fill-rule:nonzero;stroke:none"
               transform="matrix(1,0,0,-1,657.833,29.9168)"><tspan
                 id="tspan94"
                 y="0"
                 x="0 5.5599999">70</tspan></text>
</g><path
             id="path96"
             style="fill:none;stroke:#000000;stroke-width:5;stroke-linecap:butt;stroke-linejoin:round;stroke-miterlimit:10;stroke-dasharray:none;stroke-opacity:1"
             d="m 7390.83,420 0,80" /><g
             transform="scale(10,10)"
             id="g98"><text
               id="text100"
               style="font-variant:normal;font-weight:normal;font-size:10px;font-family:Helvetica;-inkscape-font-specification:Helvetica;writing-mode:lr-tb;fill:#000000;fill-opacity:1;fill-rule:nonzero;stroke:none"
               transform="matrix(1,0,0,-1,733.583,29.9168)"><tspan
                 id="tspan102"
                 y="0"
                 x="0 5.5599999">80</tspan></text>
</g><path
             id="path104"
             style="fill:none;stroke:#000000;stroke-width:5;stroke-linecap:butt;stroke-linejoin:round;stroke-miterlimit:10;stroke-dasharray:none;stroke-opacity:1"
             d="m 8148.33,420 0,80" /><g
             transform="scale(10,10)"
             id="g106"><text
               id="text108"
               style="font-variant:normal;font-weight:normal;font-size:10px;font-family:Helvetica;-inkscape-font-specification:Helvetica;writing-mode:lr-tb;fill:#000000;fill-opacity:1;fill-rule:nonzero;stroke:none"
               transform="matrix(1,0,0,-1,809.333,29.9168)"><tspan
                 id="tspan110"
                 y="0"
                 x="0 5.5599999">90</tspan></text>
</g><path
             id="path112"
             style="fill:none;stroke:#000000;stroke-width:5;stroke-linecap:butt;stroke-linejoin:round;stroke-miterlimit:10;stroke-dasharray:none;stroke-opacity:1"
             d="m 8905,420 0,80" /><g
             transform="scale(10,10)"
             id="g114"><text
               id="text116"
               style="font-variant:normal;font-weight:normal;font-size:10px;font-family:Helvetica;-inkscape-font-specification:Helvetica;writing-mode:lr-tb;fill:#000000;fill-opacity:1;fill-rule:nonzero;stroke:none"
               transform="matrix(1,0,0,-1,882.167,29.9168)"><tspan
                 id="tspan118"
                 y="0"
                 x="0 5.5599999 11.12">100</tspan></text>
</g><path
             id="path120"
             style="fill:none;stroke:#000000;stroke-width:5;stroke-linecap:butt;stroke-linejoin:round;stroke-miterlimit:10;stroke-dasharray:none;stroke-opacity:1"
             d="m 1333.33,420 79.17,0" /><g
             transform="scale(10,10)"
             id="g122"><text
               id="text124"
               style="font-variant:normal;font-weight:normal;font-size:10px;font-family:Helvetica;-inkscape-font-specification:Helvetica;writing-mode:lr-tb;fill:#000000;fill-opacity:1;fill-rule:nonzero;stroke:none"
               transform="matrix(1,0,0,-1,107.917,38.3332)"><tspan
                 id="tspan126"
                 y="0"
                 x="0 5.8400002 11.4 16.959999">−700</tspan></text>
</g><path
             id="path128"
             style="fill:none;stroke:#000000;stroke-width:5;stroke-linecap:butt;stroke-linejoin:round;stroke-miterlimit:10;stroke-dasharray:none;stroke-opacity:1"
             d="m 1333.33,730.832 79.17,0" /><g
             transform="scale(10,10)"
             id="g130"><text
               id="text132"
               style="font-variant:normal;font-weight:normal;font-size:10px;font-family:Helvetica;-inkscape-font-specification:Helvetica;writing-mode:lr-tb;fill:#000000;fill-opacity:1;fill-rule:nonzero;stroke:none"
               transform="matrix(1,0,0,-1,107.917,69.4168)"><tspan
                 id="tspan134"
                 y="0"
                 x="0 5.8400002 11.4 16.959999">−600</tspan></text>
</g><path
             id="path136"
             style="fill:none;stroke:#000000;stroke-width:5;stroke-linecap:butt;stroke-linejoin:round;stroke-miterlimit:10;stroke-dasharray:none;stroke-opacity:1"
             d="m 1333.33,1040.83 79.17,0" /><g
             transform="scale(10,10)"
             id="g138"><text
               id="text140"
               style="font-variant:normal;font-weight:normal;font-size:10px;font-family:Helvetica;-inkscape-font-specification:Helvetica;writing-mode:lr-tb;fill:#000000;fill-opacity:1;fill-rule:nonzero;stroke:none"
               transform="matrix(1,0,0,-1,107.917,100.417)"><tspan
                 id="tspan142"
                 y="0"
                 x="0 5.8400002 11.4 16.959999">−500</tspan></text>
</g><path
             id="path144"
             style="fill:none;stroke:#000000;stroke-width:5;stroke-linecap:butt;stroke-linejoin:round;stroke-miterlimit:10;stroke-dasharray:none;stroke-opacity:1"
             d="m 1333.33,1351.67 79.17,0" /><g
             transform="scale(10,10)"
             id="g146"><text
               id="text148"
               style="font-variant:normal;font-weight:normal;font-size:10px;font-family:Helvetica;-inkscape-font-specification:Helvetica;writing-mode:lr-tb;fill:#000000;fill-opacity:1;fill-rule:nonzero;stroke:none"
               transform="matrix(1,0,0,-1,107.917,131.5)"><tspan
                 id="tspan150"
                 y="0"
                 x="0 5.8400002 11.4 16.959999">−400</tspan></text>
</g><path
             id="path152"
             style="fill:none;stroke:#000000;stroke-width:5;stroke-linecap:butt;stroke-linejoin:round;stroke-miterlimit:10;stroke-dasharray:none;stroke-opacity:1"
             d="m 1333.33,1661.67 79.17,0" /><g
             transform="scale(10,10)"
             id="g154"><text
               id="text156"
               style="font-variant:normal;font-weight:normal;font-size:10px;font-family:Helvetica;-inkscape-font-specification:Helvetica;writing-mode:lr-tb;fill:#000000;fill-opacity:1;fill-rule:nonzero;stroke:none"
               transform="matrix(1,0,0,-1,107.917,162.5)"><tspan
                 id="tspan158"
                 y="0"
                 x="0 5.8400002 11.4 16.959999">−300</tspan></text>
</g><path
             id="path160"
             style="fill:none;stroke:#000000;stroke-width:5;stroke-linecap:butt;stroke-linejoin:round;stroke-miterlimit:10;stroke-dasharray:none;stroke-opacity:1"
             d="m 1333.33,1972.5 79.17,0" /><g
             transform="scale(10,10)"
             id="g162"><text
               id="text164"
               style="font-variant:normal;font-weight:normal;font-size:10px;font-family:Helvetica;-inkscape-font-specification:Helvetica;writing-mode:lr-tb;fill:#000000;fill-opacity:1;fill-rule:nonzero;stroke:none"
               transform="matrix(1,0,0,-1,107.917,193.583)"><tspan
                 id="tspan166"
                 y="0"
                 x="0 5.8400002 11.4 16.959999">−200</tspan></text>
</g><path
             id="path168"
             style="fill:none;stroke:#000000;stroke-width:5;stroke-linecap:butt;stroke-linejoin:round;stroke-miterlimit:10;stroke-dasharray:none;stroke-opacity:1"
             d="m 1333.33,2282.5 79.17,0" /><g
             transform="scale(10,10)"
             id="g170"><text
               id="text172"
               style="font-variant:normal;font-weight:normal;font-size:10px;font-family:Helvetica;-inkscape-font-specification:Helvetica;writing-mode:lr-tb;fill:#000000;fill-opacity:1;fill-rule:nonzero;stroke:none"
               transform="matrix(1,0,0,-1,107.917,224.583)"><tspan
                 id="tspan174"
                 y="0"
                 x="0 5.8400002 11.4 16.959999">−100</tspan></text>
</g><path
             id="path176"
             style="fill:none;stroke:#000000;stroke-width:5;stroke-linecap:butt;stroke-linejoin:round;stroke-miterlimit:10;stroke-dasharray:none;stroke-opacity:1"
             d="m 1333.33,2593.33 79.17,0" /><g
             transform="scale(10,10)"
             id="g178"><text
               id="text180"
               style="font-variant:normal;font-weight:normal;font-size:10px;font-family:Helvetica;-inkscape-font-specification:Helvetica;writing-mode:lr-tb;fill:#000000;fill-opacity:1;fill-rule:nonzero;stroke:none"
               transform="matrix(1,0,0,-1,124.917,255.667)"><tspan
                 id="tspan182"
                 y="0"
                 x="0">0</tspan></text>
</g><path
             id="path184"
             style="fill:none;stroke:#000000;stroke-width:5;stroke-linecap:butt;stroke-linejoin:round;stroke-miterlimit:10;stroke-dasharray:none;stroke-opacity:1"
             d="m 1333.33,2903.33 79.17,0" /><g
             transform="scale(10,10)"
             id="g186"><text
               id="text188"
               style="font-variant:normal;font-weight:normal;font-size:10px;font-family:Helvetica;-inkscape-font-specification:Helvetica;writing-mode:lr-tb;fill:#000000;fill-opacity:1;fill-rule:nonzero;stroke:none"
               transform="matrix(1,0,0,-1,113.75,286.667)"><tspan
                 id="tspan190"
                 y="0"
                 x="0 5.5599999 11.12">100</tspan></text>
</g><path
             id="path192"
             style="fill:none;stroke:#000000;stroke-width:5;stroke-linecap:butt;stroke-linejoin:round;stroke-miterlimit:10;stroke-dasharray:none;stroke-opacity:1"
             d="m 1333.33,3214.17 79.17,0" /><g
             transform="scale(10,10)"
             id="g194"><text
               id="text196"
               style="font-variant:normal;font-weight:normal;font-size:10px;font-family:Helvetica;-inkscape-font-specification:Helvetica;writing-mode:lr-tb;fill:#000000;fill-opacity:1;fill-rule:nonzero;stroke:none"
               transform="matrix(1,0,0,-1,113.75,317.75)"><tspan
                 id="tspan198"
                 y="0"
                 x="0 5.5599999 11.12">200</tspan></text>
</g><path
             id="path200"
             style="fill:none;stroke:#000000;stroke-width:5;stroke-linecap:butt;stroke-linejoin:round;stroke-miterlimit:10;stroke-dasharray:none;stroke-opacity:1"
             d="m 1333.33,3524.17 79.17,0" /><g
             transform="scale(10,10)"
             id="g202"><text
               id="text204"
               style="font-variant:normal;font-weight:normal;font-size:10px;font-family:Helvetica;-inkscape-font-specification:Helvetica;writing-mode:lr-tb;fill:#000000;fill-opacity:1;fill-rule:nonzero;stroke:none"
               transform="matrix(1,0,0,-1,113.75,348.75)"><tspan
                 id="tspan206"
                 y="0"
                 x="0 5.5599999 11.12">300</tspan></text>
</g></g></g><g
         id="g208"><g
           clip-path="url(#clipPath212)"
           id="g210"><path
             id="path216"
             style="fill:none;stroke:#007f00;stroke-width:20;stroke-linecap:butt;stroke-linejoin:round;stroke-miterlimit:10;stroke-dasharray:none;stroke-opacity:1"
             d="m 1408.33,2593.33 151.67,0 75.83,-0.83 75.84,0 75.83,-1.67 75.83,-8.33 75,15.83 75.84,-2.5 75.83,-0.83 75.83,-0.83 75.84,0 75.83,1.66 75.83,-5 75.84,1.67 75,0 75.83,-0.83 75.83,-0.84 75.84,-2.5 75.83,35.84 75.83,-26.67 75.84,-1.67 150.83,0 75.83,0.84 75.84,19.16 75.83,-25.83 75.83,0.83 151.67,0 75,-2.5 75.83,-11.66 75.84,29.16 75.83,-7.5 75.83,-0.83 75.84,-0.83 75.83,0.83 75,5 75.83,-30 75.84,15 75.83,1.67 75.83,0 75.84,-1.67 75.83,-5.83 75.83,662.5 75,-638.34 75.84,-5 75.83,-1.66 75.83,0.83 75.84,3.33 75.83,35 75.83,-62.5 75,9.17 75.84,0.83 75.83,-0.83 75.83,-4.17 75.84,-21.66 75.83,78.33 75.83,-28.33 75.84,-5 75,0 75.83,2.5 75.83,13.33 75.84,-160.83 75.83,112.5 75.83,7.5 75.84,0.83 75,-3.33 75.83,-12.5 75.83,-256.67 75.84,325.83 75.83,-18.33 75.83,-3.33 75.84,1.66 75.83,10 75,71.67 75.83,-172.5 75.84,40 75.83,6.67 75.83,-0.84 75.84,-10 75.83,-47.5 75,265.84 75.83,-133.34 75.84,-15.83 75.83,-1.67 75.83,8.34 75.84,35 75.83,-2139.17 75.83,1985.83 75,30 75.84,5 75.83,-6.66 75.83,-31.67 75.84,-320 75.83,541.67 75.83,-70 75,-13.34 75.84,4.17 75.83,26.67 75.83,154.16" /><path
             id="path218"
             style="fill:none;stroke:#ff0000;stroke-width:20;stroke-linecap:butt;stroke-linejoin:round;stroke-miterlimit:10;stroke-dasharray:none;stroke-opacity:1"
             d="m 1408.33,2593.33 379.17,0 75.83,-0.83 75,0.83 833.34,0 75.83,1.67 75.83,-1.67 302.5,0 75.84,0.84 75.83,-0.84 302.5,0 75.83,-0.83 75.84,1.67 75.83,-0.84 227.5,0 75,0.84 75.83,-1.67 75.84,0.83 227.5,0 75.83,-0.83 75.83,33.33 75,-31.66 75.84,-0.84 151.66,0 75.84,0.84 75.83,1.66 75.83,-3.33 302.5,0 75.84,-0.83 75.83,4.16 75.83,-1.66 226.67,0 75.83,0.83 75.84,-9.17 75.83,6.67 226.67,0 75.83,-0.83 75.83,-14.17 75.84,18.33 75.83,-1.66 151.67,0 75.83,0.83 75,4.17 75.83,-10 75.84,2.5 151.66,0 75.84,-0.84 75.83,-2.5 75,15.84 75.83,-7.5 75.84,-1.67 75.83,0 75.83,0.83 75.84,2.5 75.83,-132.5 75.83,122.5 75,1.67 75.84,0.83 75.83,-0.83 75.83,-1.67 75.84,-20 75.83,34.17 75.83,-5 75,-0.83 75.84,0.83 75.83,1.67 75.83,10" /><path
             id="path220"
             style="fill:none;stroke:#00ffff;stroke-width:20;stroke-linecap:butt;stroke-linejoin:round;stroke-miterlimit:10;stroke-dasharray:60;stroke-dashoffset:0;stroke-opacity:1"
             d="m 1408.33,2593.33 7572.5,0" /></g></g><g
         id="g222"><g
           clip-path="url(#clipPath226)"
           id="g224"><g
             transform="scale(10,10)"
             id="g230"><text
               id="text232"
               style="font-variant:normal;font-weight:normal;font-size:16px;font-family:Helvetica;-inkscape-font-specification:Helvetica;writing-mode:lr-tb;fill:#000000;fill-opacity:1;fill-rule:nonzero;stroke:none"
               transform="matrix(1,0,0,-1,389.417,333.917)"><tspan
                 id="tspan234"
                 y="0"
                 x="0 10.672 16 21.327999 30.224001 35.551998 40 50.672001 59.568001 64.896004 72.896004 81.792 90.688004 95.136002 104.032 112.928 121.824 129.82401 134.272 143.168 147.616 152.064 163.616 174.28799 183.18401 187.632 192.08 203.632 214.304 223.2 227.64799 232.09599 242.76801 247.216 258.76801 269.44">Error Percentages of RK1, RK2, &amp; RK4</tspan></text>
</g><path
             id="path236"
             style="fill:#ffffff;fill-opacity:1;fill-rule:evenodd;stroke:none"
             d="m 1883.33,1166.67 1386.67,0 0,746.664 -1386.67,0 0,-746.664 z" /><path
             id="path238"
             style="fill:none;stroke:#ffffff;stroke-width:5;stroke-linecap:butt;stroke-linejoin:round;stroke-miterlimit:10;stroke-dasharray:none;stroke-opacity:1"
             d="m 1883.33,1166.67 0,746.66 1386.67,0 0,-746.66 -1386.67,0" /><path
             id="path240"
             style="fill:none;stroke:#000000;stroke-width:5;stroke-linecap:butt;stroke-linejoin:round;stroke-miterlimit:10;stroke-dasharray:none;stroke-opacity:1"
             d="m 1883.33,1913.33 1386.67,0" /><path
             id="path242"
             style="fill:none;stroke:#000000;stroke-width:5;stroke-linecap:butt;stroke-linejoin:round;stroke-miterlimit:10;stroke-dasharray:none;stroke-opacity:1"
             d="m 1883.33,1166.67 1386.67,0" /><path
             id="path244"
             style="fill:none;stroke:#000000;stroke-width:5;stroke-linecap:butt;stroke-linejoin:round;stroke-miterlimit:10;stroke-dasharray:none;stroke-opacity:1"
             d="m 3270,1166.67 0,746.66" /><path
             id="path246"
             style="fill:none;stroke:#000000;stroke-width:5;stroke-linecap:butt;stroke-linejoin:round;stroke-miterlimit:10;stroke-dasharray:none;stroke-opacity:1"
             d="m 1883.33,1166.67 0,746.66" /><path
             id="path248"
             style="fill:none;stroke:#000000;stroke-width:5;stroke-linecap:butt;stroke-linejoin:round;stroke-miterlimit:10;stroke-dasharray:none;stroke-opacity:1"
             d="m 1883.33,1166.67 1386.67,0" /><path
             id="path250"
             style="fill:none;stroke:#000000;stroke-width:5;stroke-linecap:butt;stroke-linejoin:round;stroke-miterlimit:10;stroke-dasharray:none;stroke-opacity:1"
             d="m 1883.33,1166.67 0,746.66" /><path
             id="path252"
             style="fill:none;stroke:#000000;stroke-width:5;stroke-linecap:butt;stroke-linejoin:round;stroke-miterlimit:10;stroke-dasharray:none;stroke-opacity:1"
             d="m 1883.33,1913.33 1386.67,0" /><path
             id="path254"
             style="fill:none;stroke:#000000;stroke-width:5;stroke-linecap:butt;stroke-linejoin:round;stroke-miterlimit:10;stroke-dasharray:none;stroke-opacity:1"
             d="m 1883.33,1166.67 1386.67,0" /><path
             id="path256"
             style="fill:none;stroke:#000000;stroke-width:5;stroke-linecap:butt;stroke-linejoin:round;stroke-miterlimit:10;stroke-dasharray:none;stroke-opacity:1"
             d="m 3270,1166.67 0,746.66" /><path
             id="path258"
             style="fill:none;stroke:#000000;stroke-width:5;stroke-linecap:butt;stroke-linejoin:round;stroke-miterlimit:10;stroke-dasharray:none;stroke-opacity:1"
             d="m 1883.33,1166.67 0,746.66" /><g
             transform="scale(10,10)"
             id="g260"><text
               id="text262"
               style="font-variant:normal;font-weight:normal;font-size:12px;font-family:Helvetica;-inkscape-font-specification:Helvetica;writing-mode:lr-tb;fill:#000000;fill-opacity:1;fill-rule:nonzero;stroke:none"
               transform="matrix(1,0,0,-1,244.667,172.917)"><tspan
                 id="tspan264"
                 y="0"
                 x="0 8.6639996 16.667999 23.34 26.676001 34.68 38.675999 42.672001 49.344002">RK1 Error</tspan></text>
</g></g></g><g
         id="g266"><g
           clip-path="url(#clipPath270)"
           id="g268"><path
             id="path274"
             style="fill:none;stroke:#007f00;stroke-width:20;stroke-linecap:butt;stroke-linejoin:round;stroke-miterlimit:10;stroke-dasharray:none;stroke-opacity:1"
             d="m 1970,1771.67 433.33,0" /></g></g><g
         id="g276"><g
           clip-path="url(#clipPath280)"
           id="g278"><g
             transform="scale(10,10)"
             id="g284"><text
               id="text286"
               style="font-variant:normal;font-weight:normal;font-size:12px;font-family:Helvetica;-inkscape-font-specification:Helvetica;writing-mode:lr-tb;fill:#000000;fill-opacity:1;fill-rule:nonzero;stroke:none"
               transform="matrix(1,0,0,-1,244.667,149.667)"><tspan
                 id="tspan288"
                 y="0"
                 x="0 8.6639996 16.667999 23.34 26.676001 34.68 38.675999 42.672001 49.344002">RK2 Error</tspan></text>
</g></g></g><g
         id="g290"><g
           clip-path="url(#clipPath294)"
           id="g292"><path
             id="path298"
             style="fill:none;stroke:#ff0000;stroke-width:20;stroke-linecap:butt;stroke-linejoin:round;stroke-miterlimit:10;stroke-dasharray:none;stroke-opacity:1"
             d="m 1970,1540 433.33,0" /></g></g><g
         id="g300"><g
           clip-path="url(#clipPath304)"
           id="g302"><g
             transform="scale(10,10)"
             id="g308"><text
               id="text310"
               style="font-variant:normal;font-weight:normal;font-size:12px;font-family:Helvetica;-inkscape-font-specification:Helvetica;writing-mode:lr-tb;fill:#000000;fill-opacity:1;fill-rule:nonzero;stroke:none"
               transform="matrix(1,0,0,-1,244.667,126.5)"><tspan
                 id="tspan312"
                 y="0"
                 x="0 8.6639996 16.667999 23.34 26.676001 34.68 38.675999 42.672001 49.344002">RK4 Error</tspan></text>
</g></g></g><g
         id="g314"><g
           clip-path="url(#clipPath318)"
           id="g316"><path
             id="path322"
             style="fill:none;stroke:#00ffff;stroke-width:20;stroke-linecap:butt;stroke-linejoin:round;stroke-miterlimit:10;stroke-dasharray:60;stroke-dashoffset:0;stroke-opacity:1"
             d="m 1970,1309.17 433.33,0" /></g></g></g></g></svg>