<?xml version="1.0" encoding="UTF-8" standalone="no"?>
<svg
   xmlns:dc="http://purl.org/dc/elements/1.1/"
   xmlns:cc="http://creativecommons.org/ns#"
   xmlns:rdf="http://www.w3.org/1999/02/22-rdf-syntax-ns#"
   xmlns:svg="http://www.w3.org/2000/svg"
   xmlns="http://www.w3.org/2000/svg"
   viewBox="0 0 1281.25 705"
   height="705"
   width="1281.25"
   xml:space="preserve"
   version="1.1"
   id="svg2"><metadata
     id="metadata8"><rdf:RDF><cc:Work
         rdf:about=""><dc:format>image/svg+xml</dc:format><dc:type
           rdf:resource="http://purl.org/dc/dcmitype/StillImage" /></cc:Work></rdf:RDF></metadata><defs
     id="defs6"><clipPath
       id="clipPath18"
       clipPathUnits="userSpaceOnUse"><path
         id="path20"
         d="m 0,0.832031 10250,0 0,5639.169969 -10250,0 L 0,0.832031 Z" /></clipPath><clipPath
       id="clipPath188"
       clipPathUnits="userSpaceOnUse"><path
         id="path190"
         d="m 1333.33,5216.67 6009.17,0 0,-4596.67 -6009.17,0 0,4596.67 z" /></clipPath><clipPath
       id="clipPath198"
       clipPathUnits="userSpaceOnUse"><path
         id="path200"
         d="m 0,0 0,5640 10250,0 L 10250,0 0,0 Z" /></clipPath><clipPath
       id="clipPath220"
       clipPathUnits="userSpaceOnUse"><path
         id="path222"
         d="m 1333.33,5216.67 6009.17,0 0,-4596.67 -6009.17,0 0,4596.67 z" /></clipPath><clipPath
       id="clipPath236"
       clipPathUnits="userSpaceOnUse"><path
         id="path238"
         d="m 0,0 0,5640 10250,0 L 10250,0 0,0 Z" /></clipPath><clipPath
       id="clipPath276"
       clipPathUnits="userSpaceOnUse"><path
         id="path278"
         d="m 1642.5,4342.5 1290.83,0 0,-1209.17 -1290.83,0 0,1209.17 z" /></clipPath><clipPath
       id="clipPath286"
       clipPathUnits="userSpaceOnUse"><path
         id="path288"
         d="m 0,0 0,5640 10250,0 L 10250,0 0,0 Z" /></clipPath><clipPath
       id="clipPath300"
       clipPathUnits="userSpaceOnUse"><path
         id="path302"
         d="m 1642.5,4342.5 1290.83,0 0,-1209.17 -1290.83,0 0,1209.17 z" /></clipPath><clipPath
       id="clipPath310"
       clipPathUnits="userSpaceOnUse"><path
         id="path312"
         d="m 0,0 0,5640 10250,0 L 10250,0 0,0 Z" /></clipPath><clipPath
       id="clipPath324"
       clipPathUnits="userSpaceOnUse"><path
         id="path326"
         d="m 1642.5,4342.5 1290.83,0 0,-1209.17 -1290.83,0 0,1209.17 z" /></clipPath><clipPath
       id="clipPath334"
       clipPathUnits="userSpaceOnUse"><path
         id="path336"
         d="m 0,0 0,5640 10250,0 L 10250,0 0,0 Z" /></clipPath><clipPath
       id="clipPath348"
       clipPathUnits="userSpaceOnUse"><path
         id="path350"
         d="m 1642.5,4342.5 1290.83,0 0,-1209.17 -1290.83,0 0,1209.17 z" /></clipPath><clipPath
       id="clipPath358"
       clipPathUnits="userSpaceOnUse"><path
         id="path360"
         d="m 0,0 0,5640 10250,0 L 10250,0 0,0 Z" /></clipPath><clipPath
       id="clipPath372"
       clipPathUnits="userSpaceOnUse"><path
         id="path374"
         d="m 1642.5,4342.5 1290.83,0 0,-1209.17 -1290.83,0 0,1209.17 z" /></clipPath></defs><g
     transform="matrix(1.25,0,0,-1.25,0,705)"
     id="g10"><g
       transform="scale(0.1,0.1)"
       id="g12"><g
         id="g14"><g
           clip-path="url(#clipPath18)"
           id="g16"><path
             id="path22"
             style="fill:#ffffff;fill-opacity:1;fill-rule:nonzero;stroke:none"
             d="m 0,0.832031 10250,0 0,5639.169969 -10250,0 L 0,0.832031 Z" /><path
             id="path24"
             style="fill:#ffffff;fill-opacity:1;fill-rule:evenodd;stroke:none"
             d="m 1333.33,620.832 6008.34,0 0,4596.67 -6008.34,0 0,-4596.67 z" /><path
             id="path26"
             style="fill:none;stroke:#ffffff;stroke-width:5;stroke-linecap:butt;stroke-linejoin:round;stroke-miterlimit:10;stroke-dasharray:none;stroke-opacity:1"
             d="m 1333.33,620.832 0,4596.668 6008.34,0 0,-4596.668 -6008.34,0" /><path
             id="path28"
             style="fill:none;stroke:#000000;stroke-width:5;stroke-linecap:butt;stroke-linejoin:round;stroke-miterlimit:10;stroke-dasharray:none;stroke-opacity:1"
             d="m 1333.33,620.832 6008.34,0" /><path
             id="path30"
             style="fill:none;stroke:#000000;stroke-width:5;stroke-linecap:butt;stroke-linejoin:round;stroke-miterlimit:10;stroke-dasharray:none;stroke-opacity:1"
             d="m 1333.33,620.832 0,4596.668" /><path
             id="path32"
             style="fill:none;stroke:#000000;stroke-width:5;stroke-linecap:butt;stroke-linejoin:round;stroke-miterlimit:10;stroke-dasharray:none;stroke-opacity:1"
             d="m 1333.33,620.832 0,60.836" /><g
             transform="scale(10,10)"
             id="g34"><text
               id="text36"
               style="font-variant:normal;font-weight:normal;font-size:10px;font-family:Helvetica;-inkscape-font-specification:Helvetica;writing-mode:lr-tb;fill:#000000;fill-opacity:1;fill-rule:nonzero;stroke:none"
               transform="matrix(1,0,0,-1,130.583,50)"><tspan
                 id="tspan38"
                 y="0"
                 x="0">0</tspan></text>
</g><path
             id="path40"
             style="fill:none;stroke:#000000;stroke-width:5;stroke-linecap:butt;stroke-linejoin:round;stroke-miterlimit:10;stroke-dasharray:none;stroke-opacity:1"
             d="m 1905,620.832 0,60.836" /><g
             transform="scale(10,10)"
             id="g42"><text
               id="text44"
               style="font-variant:normal;font-weight:normal;font-size:10px;font-family:Helvetica;-inkscape-font-specification:Helvetica;writing-mode:lr-tb;fill:#000000;fill-opacity:1;fill-rule:nonzero;stroke:none"
               transform="matrix(1,0,0,-1,185,50)"><tspan
                 id="tspan46"
                 y="0"
                 x="0 5.5599999">10</tspan></text>
</g><path
             id="path48"
             style="fill:none;stroke:#000000;stroke-width:5;stroke-linecap:butt;stroke-linejoin:round;stroke-miterlimit:10;stroke-dasharray:none;stroke-opacity:1"
             d="m 2477.5,620.832 0,60.836" /><g
             transform="scale(10,10)"
             id="g50"><text
               id="text52"
               style="font-variant:normal;font-weight:normal;font-size:10px;font-family:Helvetica;-inkscape-font-specification:Helvetica;writing-mode:lr-tb;fill:#000000;fill-opacity:1;fill-rule:nonzero;stroke:none"
               transform="matrix(1,0,0,-1,242.25,50)"><tspan
                 id="tspan54"
                 y="0"
                 x="0 5.5599999">20</tspan></text>
</g><path
             id="path56"
             style="fill:none;stroke:#000000;stroke-width:5;stroke-linecap:butt;stroke-linejoin:round;stroke-miterlimit:10;stroke-dasharray:none;stroke-opacity:1"
             d="m 3050,620.832 0,60.836" /><g
             transform="scale(10,10)"
             id="g58"><text
               id="text60"
               style="font-variant:normal;font-weight:normal;font-size:10px;font-family:Helvetica;-inkscape-font-specification:Helvetica;writing-mode:lr-tb;fill:#000000;fill-opacity:1;fill-rule:nonzero;stroke:none"
               transform="matrix(1,0,0,-1,299.5,50)"><tspan
                 id="tspan62"
                 y="0"
                 x="0 5.5599999">30</tspan></text>
</g><path
             id="path64"
             style="fill:none;stroke:#000000;stroke-width:5;stroke-linecap:butt;stroke-linejoin:round;stroke-miterlimit:10;stroke-dasharray:none;stroke-opacity:1"
             d="m 3621.67,620.832 0,60.836" /><g
             transform="scale(10,10)"
             id="g66"><text
               id="text68"
               style="font-variant:normal;font-weight:normal;font-size:10px;font-family:Helvetica;-inkscape-font-specification:Helvetica;writing-mode:lr-tb;fill:#000000;fill-opacity:1;fill-rule:nonzero;stroke:none"
               transform="matrix(1,0,0,-1,356.667,50)"><tspan
                 id="tspan70"
                 y="0"
                 x="0 5.5599999">40</tspan></text>
</g><path
             id="path72"
             style="fill:none;stroke:#000000;stroke-width:5;stroke-linecap:butt;stroke-linejoin:round;stroke-miterlimit:10;stroke-dasharray:none;stroke-opacity:1"
             d="m 4194.17,620.832 0,60.836" /><g
             transform="scale(10,10)"
             id="g74"><text
               id="text76"
               style="font-variant:normal;font-weight:normal;font-size:10px;font-family:Helvetica;-inkscape-font-specification:Helvetica;writing-mode:lr-tb;fill:#000000;fill-opacity:1;fill-rule:nonzero;stroke:none"
               transform="matrix(1,0,0,-1,413.917,50)"><tspan
                 id="tspan78"
                 y="0"
                 x="0 5.5599999">50</tspan></text>
</g><path
             id="path80"
             style="fill:none;stroke:#000000;stroke-width:5;stroke-linecap:butt;stroke-linejoin:round;stroke-miterlimit:10;stroke-dasharray:none;stroke-opacity:1"
             d="m 4766.67,620.832 0,60.836" /><g
             transform="scale(10,10)"
             id="g82"><text
               id="text84"
               style="font-variant:normal;font-weight:normal;font-size:10px;font-family:Helvetica;-inkscape-font-specification:Helvetica;writing-mode:lr-tb;fill:#000000;fill-opacity:1;fill-rule:nonzero;stroke:none"
               transform="matrix(1,0,0,-1,471.167,50)"><tspan
                 id="tspan86"
                 y="0"
                 x="0 5.5599999">60</tspan></text>
</g><path
             id="path88"
             style="fill:none;stroke:#000000;stroke-width:5;stroke-linecap:butt;stroke-linejoin:round;stroke-miterlimit:10;stroke-dasharray:none;stroke-opacity:1"
             d="m 5338.33,620.832 0,60.836" /><g
             transform="scale(10,10)"
             id="g90"><text
               id="text92"
               style="font-variant:normal;font-weight:normal;font-size:10px;font-family:Helvetica;-inkscape-font-specification:Helvetica;writing-mode:lr-tb;fill:#000000;fill-opacity:1;fill-rule:nonzero;stroke:none"
               transform="matrix(1,0,0,-1,528.333,50)"><tspan
                 id="tspan94"
                 y="0"
                 x="0 5.5599999">70</tspan></text>
</g><path
             id="path96"
             style="fill:none;stroke:#000000;stroke-width:5;stroke-linecap:butt;stroke-linejoin:round;stroke-miterlimit:10;stroke-dasharray:none;stroke-opacity:1"
             d="m 5910.83,620.832 0,60.836" /><g
             transform="scale(10,10)"
             id="g98"><text
               id="text100"
               style="font-variant:normal;font-weight:normal;font-size:10px;font-family:Helvetica;-inkscape-font-specification:Helvetica;writing-mode:lr-tb;fill:#000000;fill-opacity:1;fill-rule:nonzero;stroke:none"
               transform="matrix(1,0,0,-1,585.583,50)"><tspan
                 id="tspan102"
                 y="0"
                 x="0 5.5599999">80</tspan></text>
</g><path
             id="path104"
             style="fill:none;stroke:#000000;stroke-width:5;stroke-linecap:butt;stroke-linejoin:round;stroke-miterlimit:10;stroke-dasharray:none;stroke-opacity:1"
             d="m 6483.33,620.832 0,60.836" /><g
             transform="scale(10,10)"
             id="g106"><text
               id="text108"
               style="font-variant:normal;font-weight:normal;font-size:10px;font-family:Helvetica;-inkscape-font-specification:Helvetica;writing-mode:lr-tb;fill:#000000;fill-opacity:1;fill-rule:nonzero;stroke:none"
               transform="matrix(1,0,0,-1,642.833,50)"><tspan
                 id="tspan110"
                 y="0"
                 x="0 5.5599999">90</tspan></text>
</g><path
             id="path112"
             style="fill:none;stroke:#000000;stroke-width:5;stroke-linecap:butt;stroke-linejoin:round;stroke-miterlimit:10;stroke-dasharray:none;stroke-opacity:1"
             d="m 7055,620.832 0,60.836" /><g
             transform="scale(10,10)"
             id="g114"><text
               id="text116"
               style="font-variant:normal;font-weight:normal;font-size:10px;font-family:Helvetica;-inkscape-font-specification:Helvetica;writing-mode:lr-tb;fill:#000000;fill-opacity:1;fill-rule:nonzero;stroke:none"
               transform="matrix(1,0,0,-1,697.167,50)"><tspan
                 id="tspan118"
                 y="0"
                 x="0 5.5599999 11.12">100</tspan></text>
</g><path
             id="path120"
             style="fill:none;stroke:#000000;stroke-width:5;stroke-linecap:butt;stroke-linejoin:round;stroke-miterlimit:10;stroke-dasharray:none;stroke-opacity:1"
             d="m 1333.33,620.832 60,0" /><g
             transform="scale(10,10)"
             id="g122"><text
               id="text124"
               style="font-variant:normal;font-weight:normal;font-size:10px;font-family:Helvetica;-inkscape-font-specification:Helvetica;writing-mode:lr-tb;fill:#000000;fill-opacity:1;fill-rule:nonzero;stroke:none"
               transform="matrix(1,0,0,-1,107.917,58.4168)"><tspan
                 id="tspan126"
                 y="0"
                 x="0 5.8400002 11.4 16.959999">−500</tspan></text>
</g><path
             id="path128"
             style="fill:none;stroke:#000000;stroke-width:5;stroke-linecap:butt;stroke-linejoin:round;stroke-miterlimit:10;stroke-dasharray:none;stroke-opacity:1"
             d="m 1333.33,1277.5 60,0" /><g
             transform="scale(10,10)"
             id="g130"><text
               id="text132"
               style="font-variant:normal;font-weight:normal;font-size:10px;font-family:Helvetica;-inkscape-font-specification:Helvetica;writing-mode:lr-tb;fill:#000000;fill-opacity:1;fill-rule:nonzero;stroke:none"
               transform="matrix(1,0,0,-1,124.917,124.083)"><tspan
                 id="tspan134"
                 y="0"
                 x="0">0</tspan></text>
</g><path
             id="path136"
             style="fill:none;stroke:#000000;stroke-width:5;stroke-linecap:butt;stroke-linejoin:round;stroke-miterlimit:10;stroke-dasharray:none;stroke-opacity:1"
             d="m 1333.33,1934.17 60,0" /><g
             transform="scale(10,10)"
             id="g138"><text
               id="text140"
               style="font-variant:normal;font-weight:normal;font-size:10px;font-family:Helvetica;-inkscape-font-specification:Helvetica;writing-mode:lr-tb;fill:#000000;fill-opacity:1;fill-rule:nonzero;stroke:none"
               transform="matrix(1,0,0,-1,113.75,189.75)"><tspan
                 id="tspan142"
                 y="0"
                 x="0 5.5599999 11.12">500</tspan></text>
</g><path
             id="path144"
             style="fill:none;stroke:#000000;stroke-width:5;stroke-linecap:butt;stroke-linejoin:round;stroke-miterlimit:10;stroke-dasharray:none;stroke-opacity:1"
             d="m 1333.33,2590.83 60,0" /><g
             transform="scale(10,10)"
             id="g146"><text
               id="text148"
               style="font-variant:normal;font-weight:normal;font-size:10px;font-family:Helvetica;-inkscape-font-specification:Helvetica;writing-mode:lr-tb;fill:#000000;fill-opacity:1;fill-rule:nonzero;stroke:none"
               transform="matrix(1,0,0,-1,108.25,255.417)"><tspan
                 id="tspan150"
                 y="0"
                 x="0 5.5599999 11.12 16.68">1000</tspan></text>
</g><path
             id="path152"
             style="fill:none;stroke:#000000;stroke-width:5;stroke-linecap:butt;stroke-linejoin:round;stroke-miterlimit:10;stroke-dasharray:none;stroke-opacity:1"
             d="m 1333.33,3247.5 60,0" /><g
             transform="scale(10,10)"
             id="g154"><text
               id="text156"
               style="font-variant:normal;font-weight:normal;font-size:10px;font-family:Helvetica;-inkscape-font-specification:Helvetica;writing-mode:lr-tb;fill:#000000;fill-opacity:1;fill-rule:nonzero;stroke:none"
               transform="matrix(1,0,0,-1,108.25,321.083)"><tspan
                 id="tspan158"
                 y="0"
                 x="0 5.5599999 11.12 16.68">1500</tspan></text>
</g><path
             id="path160"
             style="fill:none;stroke:#000000;stroke-width:5;stroke-linecap:butt;stroke-linejoin:round;stroke-miterlimit:10;stroke-dasharray:none;stroke-opacity:1"
             d="m 1333.33,3904.17 60,0" /><g
             transform="scale(10,10)"
             id="g162"><text
               id="text164"
               style="font-variant:normal;font-weight:normal;font-size:10px;font-family:Helvetica;-inkscape-font-specification:Helvetica;writing-mode:lr-tb;fill:#000000;fill-opacity:1;fill-rule:nonzero;stroke:none"
               transform="matrix(1,0,0,-1,108.25,386.75)"><tspan
                 id="tspan166"
                 y="0"
                 x="0 5.5599999 11.12 16.68">2000</tspan></text>
</g><path
             id="path168"
             style="fill:none;stroke:#000000;stroke-width:5;stroke-linecap:butt;stroke-linejoin:round;stroke-miterlimit:10;stroke-dasharray:none;stroke-opacity:1"
             d="m 1333.33,4560.84 60,0" /><g
             transform="scale(10,10)"
             id="g170"><text
               id="text172"
               style="font-variant:normal;font-weight:normal;font-size:10px;font-family:Helvetica;-inkscape-font-specification:Helvetica;writing-mode:lr-tb;fill:#000000;fill-opacity:1;fill-rule:nonzero;stroke:none"
               transform="matrix(1,0,0,-1,108.25,452.417)"><tspan
                 id="tspan174"
                 y="0"
                 x="0 5.5599999 11.12 16.68">2500</tspan></text>
</g><path
             id="path176"
             style="fill:none;stroke:#000000;stroke-width:5;stroke-linecap:butt;stroke-linejoin:round;stroke-miterlimit:10;stroke-dasharray:none;stroke-opacity:1"
             d="m 1333.33,5216.67 60,0" /><g
             transform="scale(10,10)"
             id="g178"><text
               id="text180"
               style="font-variant:normal;font-weight:normal;font-size:10px;font-family:Helvetica;-inkscape-font-specification:Helvetica;writing-mode:lr-tb;fill:#000000;fill-opacity:1;fill-rule:nonzero;stroke:none"
               transform="matrix(1,0,0,-1,108.25,518)"><tspan
                 id="tspan182"
                 y="0"
                 x="0 5.5599999 11.12 16.68">3000</tspan></text>
</g></g></g><g
         id="g184"><g
           clip-path="url(#clipPath188)"
           id="g186"><path
             id="path192"
             style="fill:none;stroke:#0000ff;stroke-width:20;stroke-linecap:butt;stroke-linejoin:round;stroke-miterlimit:10;stroke-dasharray:none;stroke-opacity:1"
             d="m 1390,1277.5 57.5,0.83 343.33,0 57.5,0.84 285.84,0 57.5,0.83 285.83,0 57.5,0.83 343.33,0 56.67,0.84 286.67,0 56.66,0.83 286.67,0 56.67,0.83 343.33,0 57.5,0.84 285.83,0 57.5,0.83 343.34,0 57.5,0.83 285.83,0 57.5,0.84 285.83,0 57.5,0.83 343.34,0 56.66,0.83 286.67,0 56.67,0.84 286.66,0 56.67,0.83 343.33,0 57.5,0.83 171.67,0" /></g></g><g
         id="g194"><g
           clip-path="url(#clipPath198)"
           id="g196"><g
             transform="scale(10,10)"
             id="g202"><text
               id="text204"
               style="font-variant:normal;font-weight:normal;font-size:10px;font-family:Helvetica;-inkscape-font-specification:Helvetica;writing-mode:lr-tb;fill:#000000;fill-opacity:1;fill-rule:nonzero;stroke:none"
               transform="matrix(1,0,0,-1,420.917,38.0832)"><tspan
                 id="tspan206"
                 y="0"
                 x="0 6.6700001 9.4499998 15.01 20.57">Steps</tspan></text>
<text
               id="text208"
               style="font-variant:normal;font-weight:normal;font-size:10px;font-family:Helvetica;-inkscape-font-specification:Helvetica;writing-mode:lr-tb;fill:#000000;fill-opacity:1;fill-rule:nonzero;stroke:none"
               transform="matrix(0,1,1,0,101.083,279.417)"><tspan
                 id="tspan210"
                 y="0"
                 x="0 6.6700001 12.23 14.45 20.01">Value</tspan></text>
<text
               id="text212"
               style="font-variant:normal;font-weight:normal;font-size:24px;font-family:'Courier 10 Pitch';-inkscape-font-specification:Courier;writing-mode:lr-tb;fill:#000000;fill-opacity:1;fill-rule:nonzero;stroke:none"
               transform="matrix(1,0,0,-1,202.167,470.75)"><tspan
                 id="tspan214"
                 y="0"
                 x="0 14.4 28.799999 43.200001 57.599998 72 86.400002 100.8 115.2 129.60001 144 158.39999 172.8 187.2 201.60001 216 230.39999 244.8 259.20001 273.60001 288 302.39999 316.79999 331.20001 345.60001 360 374.39999 388.79999 403.20001 417.60001 432 446.39999">RK1, RK2, RK4, &amp; Exact Solutions</tspan></text>
</g></g></g><g
         id="g216"><g
           clip-path="url(#clipPath220)"
           id="g218"><path
             id="path224"
             style="fill:none;stroke:#008000;stroke-width:20;stroke-linecap:butt;stroke-linejoin:round;stroke-miterlimit:10;stroke-dasharray:none;stroke-opacity:1"
             d="m 1390,1277.5 57.5,0.83 57.5,0.84 56.67,0 57.5,0.83 57.5,-0.83 56.66,0 57.5,-0.84 57.5,-0.83 56.67,-0.83 115,0 56.67,0.83 57.5,1.67 57.5,0.83 56.66,0.83 57.5,0.84 114.17,0 57.5,-1.67 57.5,-1.67 56.67,-0.83 57.5,-0.83 57.5,0 56.66,0.83 57.5,2.5 57.5,2.5 56.67,2.5 57.5,1.67 57.5,0.83 56.67,0 57.5,-1.67 57.5,-2.5 56.66,-2.5 57.5,-1.66 57.5,0 56.67,0.83 57.5,3.33 57.5,5 56.67,5 57.5,5 57.5,3.34 56.66,1.66 57.5,-0.83 57.5,-2.5 56.67,-4.17 57.5,-3.33 57.5,-1.67 56.67,1.67 57.5,5.83 57.5,8.34 56.66,10.83 57.5,11.67 57.5,10 56.67,7.5 57.5,2.5 57.5,-0.84 56.67,-3.33 57.5,-4.17 57.5,-1.66 56.66,2.5 57.5,10 57.5,16.66 56.67,23.34 57.5,26.66 57.5,26.67 56.67,23.33 57.5,16.67 57.5,10 56.66,4.17 57.5,0.83 57.5,3.33 56.67,11.67 57.5,22.5 57.5,37.5 56.67,51.67 57.5,63.33 57.5,68.33 56.66,67.5 57.5,60 57.5,50 56.67,39.17 57.5,32.5 57.5,35 56.67,45.83 57.5,67.5 57.5,96.67 56.66,128.33 57.5,157.5 57.5,179.17 56.67,190 57.5,189.17 57.5,179.16 56.67,165.84 57.5,156.66 57.5,159.17 56.66,180 57.5,221.67 57.5,280 56.67,350.83 57.5,425" /><path
             id="path226"
             style="fill:none;stroke:#ff0000;stroke-width:20;stroke-linecap:butt;stroke-linejoin:round;stroke-miterlimit:10;stroke-dasharray:none;stroke-opacity:1"
             d="m 1390,1277.5 57.5,0.83 57.5,0.84 171.67,0 56.66,-0.84 57.5,-0.83 57.5,-0.83 56.67,-0.84 115,0 56.67,1.67 57.5,0.83 57.5,0.84 56.66,1.66 57.5,0 57.5,-0.83 56.67,-0.83 57.5,-1.67 57.5,-1.67 56.67,-0.83 57.5,-0.83 57.5,0 56.66,1.66 57.5,1.67 57.5,2.5 56.67,1.67 57.5,1.66 57.5,0 56.67,-1.66 57.5,-2.5 57.5,-2.5 56.66,-3.34 57.5,-2.5 57.5,0 56.67,1.67 57.5,2.5 57.5,4.17 56.67,5 57.5,3.33 57.5,1.67 56.66,-1.67 57.5,-3.33 57.5,-5 56.67,-6.67 57.5,-5 57.5,-2.5 56.67,0.83 57.5,4.17 57.5,7.5 56.66,8.33 57.5,7.5 57.5,5 56.67,0.84 57.5,-4.17 57.5,-7.5 56.67,-10.83 57.5,-10.84 57.5,-7.5 56.66,-1.66 57.5,4.16 57.5,10.84 56.67,15 57.5,15.83 57.5,13.33 56.67,6.67 57.5,-1.67 57.5,-10.83 56.66,-17.5 57.5,-20 57.5,-17.5 56.67,-9.17 57.5,1.67 57.5,15 56.67,25 57.5,30.83 57.5,30 56.66,21.67 57.5,6.67 57.5,-9.17 56.67,-24.17 57.5,-34.16 57.5,-34.17 56.67,-25 57.5,-5.83 57.5,16.66 56.66,40 57.5,56.67 57.5,62.5 56.67,55 57.5,34.17 57.5,5.83 56.67,-25 57.5,-49.17 57.5,-59.16 56.66,-50.84 57.5,-24.16 57.5,15.83 56.67,61.67 57.5,102.5" /><path
             id="path228"
             style="fill:none;stroke:#00bfbf;stroke-width:30;stroke-linecap:butt;stroke-linejoin:round;stroke-miterlimit:10;stroke-dasharray:none;stroke-opacity:1"
             d="m 1390,1277.5 57.5,0.83 57.5,0.84 171.67,0 56.66,-0.84 57.5,-0.83 57.5,-0.83 56.67,-0.84 115,0 56.67,1.67 57.5,0.83 57.5,0.84 56.66,0.83 57.5,0.83 57.5,-0.83 56.67,-0.83 57.5,-1.67 57.5,-1.67 56.67,-1.66 115,0 56.66,1.66 57.5,1.67 57.5,2.5 56.67,1.67 57.5,1.66 57.5,0 56.67,-1.66 57.5,-2.5 57.5,-3.34 56.66,-2.5 57.5,-2.5 57.5,0 56.67,0.84 57.5,3.33 57.5,4.17 56.67,4.16 57.5,3.34 57.5,1.66 56.66,-1.66 57.5,-3.34 57.5,-5.83 56.67,-5.83 57.5,-5 57.5,-2.5 56.67,0.83 57.5,4.17 57.5,6.66 56.66,8.34 57.5,7.5 57.5,4.16 56.67,0.84 57.5,-4.17 57.5,-9.17 56.67,-10.83 57.5,-10.83 57.5,-7.5 56.66,-2.5 57.5,4.16 57.5,10 56.67,14.17 57.5,15.83 57.5,11.67 56.67,5.83 57.5,-3.33 57.5,-11.67 56.66,-18.33 57.5,-20.83 57.5,-18.34 56.67,-10.83 57.5,0.83 57.5,12.5 56.67,23.34 57.5,28.33 57.5,27.5 56.66,17.5 57.5,4.17 57.5,-13.34 56.67,-27.5 57.5,-38.33 57.5,-38.33 56.67,-29.17 57.5,-11.67 57.5,11.67 56.66,33.33 57.5,49.17 57.5,53.33 56.67,45 57.5,23.34 57.5,-5.84 56.67,-37.5 57.5,-62.5 57.5,-74.16 56.66,-66.67 57.5,-41.67 57.5,-4.16 56.67,40 57.5,77.5" /><path
             id="path230"
             style="fill:none;stroke:#bf00bf;stroke-width:20;stroke-linecap:butt;stroke-linejoin:round;stroke-miterlimit:10;stroke-dasharray:60;stroke-dashoffset:0;stroke-opacity:1"
             d="m 1390,1277.5 57.5,0.83 57.5,0.84 171.67,0 56.66,-0.84 57.5,-0.83 57.5,-0.83 56.67,-0.84 115,0 56.67,1.67 57.5,0.83 57.5,0.84 56.66,0.83 57.5,0.83 57.5,-0.83 56.67,-0.83 57.5,-1.67 57.5,-1.67 56.67,-1.66 115,0 56.66,1.66 57.5,1.67 57.5,2.5 56.67,1.67 57.5,1.66 57.5,0 56.67,-1.66 57.5,-2.5 57.5,-3.34 56.66,-2.5 57.5,-2.5 57.5,0 56.67,0.84 57.5,3.33 57.5,4.17 56.67,4.16 57.5,3.34 57.5,1.66 56.66,-1.66 57.5,-3.34 57.5,-5.83 56.67,-5.83 57.5,-5 57.5,-2.5 56.67,0.83 57.5,4.17 57.5,6.66 56.66,8.34 57.5,7.5 57.5,4.16 56.67,0.84 57.5,-4.17 57.5,-9.17 56.67,-10.83 57.5,-10.83 57.5,-7.5 56.66,-2.5 57.5,4.16 57.5,10 56.67,14.17 57.5,15.83 57.5,11.67 56.67,5.83 57.5,-3.33 57.5,-11.67 56.66,-18.33 57.5,-20.83 57.5,-18.34 56.67,-10.83 57.5,0.83 57.5,12.5 56.67,23.34 57.5,28.33 57.5,27.5 56.66,17.5 57.5,4.17 57.5,-13.34 56.67,-27.5 57.5,-38.33 57.5,-38.33 56.67,-29.17 57.5,-11.67 57.5,11.67 56.66,33.33 57.5,49.17 57.5,53.33 56.67,45 57.5,23.34 57.5,-5.84 56.67,-37.5 57.5,-62.5 57.5,-74.16 56.66,-66.67 57.5,-41.67 57.5,-3.33 56.67,39.17 57.5,77.5" /></g></g><g
         id="g232"><g
           clip-path="url(#clipPath236)"
           id="g234"><g
             transform="scale(10,10)"
             id="g240" /><path
             id="path242"
             style="fill:#ffffff;fill-opacity:1;fill-rule:evenodd;stroke:none"
             d="m 1642.5,3134.17 1290,0 0,1208.33 -1290,0 0,-1208.33 z" /><path
             id="path244"
             style="fill:none;stroke:#ffffff;stroke-width:5;stroke-linecap:butt;stroke-linejoin:round;stroke-miterlimit:10;stroke-dasharray:none;stroke-opacity:1"
             d="m 1642.5,3134.17 0,1208.33 1290,0 0,-1208.33 -1290,0" /><path
             id="path246"
             style="fill:none;stroke:#000000;stroke-width:5;stroke-linecap:butt;stroke-linejoin:round;stroke-miterlimit:10;stroke-dasharray:none;stroke-opacity:1"
             d="m 1642.5,4342.5 1290,0" /><path
             id="path248"
             style="fill:none;stroke:#000000;stroke-width:5;stroke-linecap:butt;stroke-linejoin:round;stroke-miterlimit:10;stroke-dasharray:none;stroke-opacity:1"
             d="m 1642.5,3134.17 1290,0" /><path
             id="path250"
             style="fill:none;stroke:#000000;stroke-width:5;stroke-linecap:butt;stroke-linejoin:round;stroke-miterlimit:10;stroke-dasharray:none;stroke-opacity:1"
             d="m 2932.5,3134.17 0,1208.33" /><path
             id="path252"
             style="fill:none;stroke:#000000;stroke-width:5;stroke-linecap:butt;stroke-linejoin:round;stroke-miterlimit:10;stroke-dasharray:none;stroke-opacity:1"
             d="m 1642.5,3134.17 0,1208.33" /><path
             id="path254"
             style="fill:none;stroke:#000000;stroke-width:5;stroke-linecap:butt;stroke-linejoin:round;stroke-miterlimit:10;stroke-dasharray:none;stroke-opacity:1"
             d="m 1642.5,3134.17 1290,0" /><path
             id="path256"
             style="fill:none;stroke:#000000;stroke-width:5;stroke-linecap:butt;stroke-linejoin:round;stroke-miterlimit:10;stroke-dasharray:none;stroke-opacity:1"
             d="m 1642.5,3134.17 0,1208.33" /><path
             id="path258"
             style="fill:none;stroke:#000000;stroke-width:5;stroke-linecap:butt;stroke-linejoin:round;stroke-miterlimit:10;stroke-dasharray:none;stroke-opacity:1"
             d="m 1642.5,4342.5 1290,0" /><path
             id="path260"
             style="fill:none;stroke:#000000;stroke-width:5;stroke-linecap:butt;stroke-linejoin:round;stroke-miterlimit:10;stroke-dasharray:none;stroke-opacity:1"
             d="m 1642.5,3134.17 1290,0" /><path
             id="path262"
             style="fill:none;stroke:#000000;stroke-width:5;stroke-linecap:butt;stroke-linejoin:round;stroke-miterlimit:10;stroke-dasharray:none;stroke-opacity:1"
             d="m 2932.5,3134.17 0,1208.33" /><path
             id="path264"
             style="fill:none;stroke:#000000;stroke-width:5;stroke-linecap:butt;stroke-linejoin:round;stroke-miterlimit:10;stroke-dasharray:none;stroke-opacity:1"
             d="m 1642.5,3134.17 0,1208.33" /><g
             transform="scale(10,10)"
             id="g266"><text
               id="text268"
               style="font-variant:normal;font-weight:normal;font-size:12px;font-family:'Courier 10 Pitch';-inkscape-font-specification:Courier;writing-mode:lr-tb;fill:#000000;fill-opacity:1;fill-rule:nonzero;stroke:none"
               transform="matrix(1,0,0,-1,234.917,416.25)"><tspan
                 id="tspan270"
                 y="0"
                 x="0">x</tspan></text>
</g></g></g><g
         id="g272"><g
           clip-path="url(#clipPath276)"
           id="g274"><path
             id="path280"
             style="fill:none;stroke:#0000ff;stroke-width:20;stroke-linecap:butt;stroke-linejoin:round;stroke-miterlimit:10;stroke-dasharray:none;stroke-opacity:1"
             d="m 1750.83,4202.5 543.34,0" /></g></g><g
         id="g282"><g
           clip-path="url(#clipPath286)"
           id="g284"><g
             transform="scale(10,10)"
             id="g290"><text
               id="text292"
               style="font-variant:normal;font-weight:normal;font-size:12px;font-family:'Courier 10 Pitch';-inkscape-font-specification:Courier;writing-mode:lr-tb;fill:#000000;fill-opacity:1;fill-rule:nonzero;stroke:none"
               transform="matrix(1,0,0,-1,234.917,393.083)"><tspan
                 id="tspan294"
                 y="0"
                 x="0 7.1999998 14.4">RK1</tspan></text>
</g></g></g><g
         id="g296"><g
           clip-path="url(#clipPath300)"
           id="g298"><path
             id="path304"
             style="fill:none;stroke:#008000;stroke-width:20;stroke-linecap:butt;stroke-linejoin:round;stroke-miterlimit:10;stroke-dasharray:none;stroke-opacity:1"
             d="m 1750.83,3970.83 543.34,0" /></g></g><g
         id="g306"><g
           clip-path="url(#clipPath310)"
           id="g308"><g
             transform="scale(10,10)"
             id="g314"><text
               id="text316"
               style="font-variant:normal;font-weight:normal;font-size:12px;font-family:'Courier 10 Pitch';-inkscape-font-specification:Courier;writing-mode:lr-tb;fill:#000000;fill-opacity:1;fill-rule:nonzero;stroke:none"
               transform="matrix(1,0,0,-1,234.917,369.833)"><tspan
                 id="tspan318"
                 y="0"
                 x="0 7.1999998 14.4">RK2</tspan></text>
</g></g></g><g
         id="g320"><g
           clip-path="url(#clipPath324)"
           id="g322"><path
             id="path328"
             style="fill:none;stroke:#ff0000;stroke-width:20;stroke-linecap:butt;stroke-linejoin:round;stroke-miterlimit:10;stroke-dasharray:none;stroke-opacity:1"
             d="m 1750.83,3738.33 543.34,0" /></g></g><g
         id="g330"><g
           clip-path="url(#clipPath334)"
           id="g332"><g
             transform="scale(10,10)"
             id="g338"><text
               id="text340"
               style="font-variant:normal;font-weight:normal;font-size:12px;font-family:'Courier 10 Pitch';-inkscape-font-specification:Courier;writing-mode:lr-tb;fill:#000000;fill-opacity:1;fill-rule:nonzero;stroke:none"
               transform="matrix(1,0,0,-1,234.917,346.667)"><tspan
                 id="tspan342"
                 y="0"
                 x="0 7.1999998 14.4">RK4</tspan></text>
</g></g></g><g
         id="g344"><g
           clip-path="url(#clipPath348)"
           id="g346"><path
             id="path352"
             style="fill:none;stroke:#00bfbf;stroke-width:30;stroke-linecap:butt;stroke-linejoin:round;stroke-miterlimit:10;stroke-dasharray:none;stroke-opacity:1"
             d="m 1750.83,3506.67 543.34,0" /></g></g><g
         id="g354"><g
           clip-path="url(#clipPath358)"
           id="g356"><g
             transform="scale(10,10)"
             id="g362"><text
               id="text364"
               style="font-variant:normal;font-weight:normal;font-size:12px;font-family:'Courier 10 Pitch';-inkscape-font-specification:Courier;writing-mode:lr-tb;fill:#000000;fill-opacity:1;fill-rule:nonzero;stroke:none"
               transform="matrix(1,0,0,-1,234.917,323.5)"><tspan
                 id="tspan366"
                 y="0"
                 x="0 7.1999998 14.4 21.6 28.799999">Exact</tspan></text>
</g></g></g><g
         id="g368"><g
           clip-path="url(#clipPath372)"
           id="g370"><path
             id="path376"
             style="fill:none;stroke:#bf00bf;stroke-width:20;stroke-linecap:butt;stroke-linejoin:round;stroke-miterlimit:10;stroke-dasharray:60;stroke-dashoffset:0;stroke-opacity:1"
             d="m 1750.83,3275 543.34,0" /></g></g></g></g></svg>