<?xml version="1.0" encoding="UTF-8" standalone="no"?>
<svg
   xmlns:dc="http://purl.org/dc/elements/1.1/"
   xmlns:cc="http://creativecommons.org/ns#"
   xmlns:rdf="http://www.w3.org/1999/02/22-rdf-syntax-ns#"
   xmlns:svg="http://www.w3.org/2000/svg"
   xmlns="http://www.w3.org/2000/svg"
   viewBox="0 0 1281.25 480"
   height="480"
   width="1281.25"
   xml:space="preserve"
   version="1.1"
   id="svg2"><metadata
     id="metadata8"><rdf:RDF><cc:Work
         rdf:about=""><dc:format>image/svg+xml</dc:format><dc:type
           rdf:resource="http://purl.org/dc/dcmitype/StillImage" /></cc:Work></rdf:RDF></metadata><defs
     id="defs6"><clipPath
       id="clipPath18"
       clipPathUnits="userSpaceOnUse"><path
         id="path20"
         d="m 0,0.832031 10250,0 0,3839.169969 -10250,0 L 0,0.832031 Z" /></clipPath><clipPath
       id="clipPath188"
       clipPathUnits="userSpaceOnUse"><path
         id="path190"
         d="m 1333.33,3551.67 7951.67,0 0,-3129.17 -7951.67,0 0,3129.17 z" /></clipPath><clipPath
       id="clipPath204"
       clipPathUnits="userSpaceOnUse"><path
         id="path206"
         d="m 0,0 0,3840 10250,0 L 10250,0 0,0 Z" /></clipPath><clipPath
       id="clipPath248"
       clipPathUnits="userSpaceOnUse"><path
         id="path250"
         d="m 1763.33,2897.5 945,0 0,-910.83 -945,0 0,910.83 z" /></clipPath><clipPath
       id="clipPath258"
       clipPathUnits="userSpaceOnUse"><path
         id="path260"
         d="m 0,0 0,3840 10250,0 L 10250,0 0,0 Z" /></clipPath><clipPath
       id="clipPath272"
       clipPathUnits="userSpaceOnUse"><path
         id="path274"
         d="m 1763.33,2897.5 945,0 0,-910.83 -945,0 0,910.83 z" /></clipPath><clipPath
       id="clipPath282"
       clipPathUnits="userSpaceOnUse"><path
         id="path284"
         d="m 0,0 0,3840 10250,0 L 10250,0 0,0 Z" /></clipPath><clipPath
       id="clipPath296"
       clipPathUnits="userSpaceOnUse"><path
         id="path298"
         d="m 1763.33,2897.5 945,0 0,-910.83 -945,0 0,910.83 z" /></clipPath><clipPath
       id="clipPath306"
       clipPathUnits="userSpaceOnUse"><path
         id="path308"
         d="m 0,0 0,3840 10250,0 L 10250,0 0,0 Z" /></clipPath><clipPath
       id="clipPath320"
       clipPathUnits="userSpaceOnUse"><path
         id="path322"
         d="m 1763.33,2897.5 945,0 0,-910.83 -945,0 0,910.83 z" /></clipPath></defs><g
     transform="matrix(1.25,0,0,-1.25,0,480)"
     id="g10"><g
       transform="scale(0.1,0.1)"
       id="g12"><g
         id="g14"><g
           clip-path="url(#clipPath18)"
           id="g16"><path
             id="path22"
             style="fill:#ffffff;fill-opacity:1;fill-rule:nonzero;stroke:none"
             d="m 0,0.832031 10250,0 0,3839.169969 -10250,0 L 0,0.832031 Z" /><path
             id="path24"
             style="fill:#ffffff;fill-opacity:1;fill-rule:evenodd;stroke:none"
             d="m 1333.33,423.332 7950.84,0 0,3129.17 -7950.84,0 0,-3129.17 z" /><path
             id="path26"
             style="fill:none;stroke:#ffffff;stroke-width:5;stroke-linecap:butt;stroke-linejoin:round;stroke-miterlimit:10;stroke-dasharray:none;stroke-opacity:1"
             d="m 1333.33,423.332 0,3129.168 7950.84,0 0,-3129.168 -7950.84,0" /><path
             id="path28"
             style="fill:none;stroke:#000000;stroke-width:5;stroke-linecap:butt;stroke-linejoin:round;stroke-miterlimit:10;stroke-dasharray:none;stroke-opacity:1"
             d="m 1333.33,423.332 7950.84,0" /><path
             id="path30"
             style="fill:none;stroke:#000000;stroke-width:5;stroke-linecap:butt;stroke-linejoin:round;stroke-miterlimit:10;stroke-dasharray:none;stroke-opacity:1"
             d="m 1333.33,423.332 0,3129.168" /><path
             id="path32"
             style="fill:none;stroke:#000000;stroke-width:5;stroke-linecap:butt;stroke-linejoin:round;stroke-miterlimit:10;stroke-dasharray:none;stroke-opacity:1"
             d="m 1333.33,423.332 0,80" /><g
             transform="scale(10,10)"
             id="g34"><text
               id="text36"
               style="font-variant:normal;font-weight:normal;font-size:10px;font-family:'Courier 10 Pitch';-inkscape-font-specification:Courier;writing-mode:lr-tb;fill:#000000;fill-opacity:1;fill-rule:nonzero;stroke:none"
               transform="matrix(1,0,0,-1,130.333,31.5)"><tspan
                 id="tspan38"
                 y="0"
                 x="0">0</tspan></text>
</g><path
             id="path40"
             style="fill:none;stroke:#000000;stroke-width:5;stroke-linecap:butt;stroke-linejoin:round;stroke-miterlimit:10;stroke-dasharray:none;stroke-opacity:1"
             d="m 2090,423.332 0,80" /><g
             transform="scale(10,10)"
             id="g42"><text
               id="text44"
               style="font-variant:normal;font-weight:normal;font-size:10px;font-family:'Courier 10 Pitch';-inkscape-font-specification:Courier;writing-mode:lr-tb;fill:#000000;fill-opacity:1;fill-rule:nonzero;stroke:none"
               transform="matrix(1,0,0,-1,203,31.5)"><tspan
                 id="tspan46"
                 y="0"
                 x="0 6">10</tspan></text>
</g><path
             id="path48"
             style="fill:none;stroke:#000000;stroke-width:5;stroke-linecap:butt;stroke-linejoin:round;stroke-miterlimit:10;stroke-dasharray:none;stroke-opacity:1"
             d="m 2847.5,423.332 0,80" /><g
             transform="scale(10,10)"
             id="g50"><text
               id="text52"
               style="font-variant:normal;font-weight:normal;font-size:10px;font-family:'Courier 10 Pitch';-inkscape-font-specification:Courier;writing-mode:lr-tb;fill:#000000;fill-opacity:1;fill-rule:nonzero;stroke:none"
               transform="matrix(1,0,0,-1,278.75,31.5)"><tspan
                 id="tspan54"
                 y="0"
                 x="0 6">20</tspan></text>
</g><path
             id="path56"
             style="fill:none;stroke:#000000;stroke-width:5;stroke-linecap:butt;stroke-linejoin:round;stroke-miterlimit:10;stroke-dasharray:none;stroke-opacity:1"
             d="m 3605,423.332 0,80" /><g
             transform="scale(10,10)"
             id="g58"><text
               id="text60"
               style="font-variant:normal;font-weight:normal;font-size:10px;font-family:'Courier 10 Pitch';-inkscape-font-specification:Courier;writing-mode:lr-tb;fill:#000000;fill-opacity:1;fill-rule:nonzero;stroke:none"
               transform="matrix(1,0,0,-1,354.5,31.5)"><tspan
                 id="tspan62"
                 y="0"
                 x="0 6">30</tspan></text>
</g><path
             id="path64"
             style="fill:none;stroke:#000000;stroke-width:5;stroke-linecap:butt;stroke-linejoin:round;stroke-miterlimit:10;stroke-dasharray:none;stroke-opacity:1"
             d="m 4361.67,423.332 0,80" /><g
             transform="scale(10,10)"
             id="g66"><text
               id="text68"
               style="font-variant:normal;font-weight:normal;font-size:10px;font-family:'Courier 10 Pitch';-inkscape-font-specification:Courier;writing-mode:lr-tb;fill:#000000;fill-opacity:1;fill-rule:nonzero;stroke:none"
               transform="matrix(1,0,0,-1,430.167,31.5)"><tspan
                 id="tspan70"
                 y="0"
                 x="0 6">40</tspan></text>
</g><path
             id="path72"
             style="fill:none;stroke:#000000;stroke-width:5;stroke-linecap:butt;stroke-linejoin:round;stroke-miterlimit:10;stroke-dasharray:none;stroke-opacity:1"
             d="m 5119.17,423.332 0,80" /><g
             transform="scale(10,10)"
             id="g74"><text
               id="text76"
               style="font-variant:normal;font-weight:normal;font-size:10px;font-family:'Courier 10 Pitch';-inkscape-font-specification:Courier;writing-mode:lr-tb;fill:#000000;fill-opacity:1;fill-rule:nonzero;stroke:none"
               transform="matrix(1,0,0,-1,505.917,31.5)"><tspan
                 id="tspan78"
                 y="0"
                 x="0 6">50</tspan></text>
</g><path
             id="path80"
             style="fill:none;stroke:#000000;stroke-width:5;stroke-linecap:butt;stroke-linejoin:round;stroke-miterlimit:10;stroke-dasharray:none;stroke-opacity:1"
             d="m 5876.67,423.332 0,80" /><g
             transform="scale(10,10)"
             id="g82"><text
               id="text84"
               style="font-variant:normal;font-weight:normal;font-size:10px;font-family:'Courier 10 Pitch';-inkscape-font-specification:Courier;writing-mode:lr-tb;fill:#000000;fill-opacity:1;fill-rule:nonzero;stroke:none"
               transform="matrix(1,0,0,-1,581.667,31.5)"><tspan
                 id="tspan86"
                 y="0"
                 x="0 6">60</tspan></text>
</g><path
             id="path88"
             style="fill:none;stroke:#000000;stroke-width:5;stroke-linecap:butt;stroke-linejoin:round;stroke-miterlimit:10;stroke-dasharray:none;stroke-opacity:1"
             d="m 6633.33,423.332 0,80" /><g
             transform="scale(10,10)"
             id="g90"><text
               id="text92"
               style="font-variant:normal;font-weight:normal;font-size:10px;font-family:'Courier 10 Pitch';-inkscape-font-specification:Courier;writing-mode:lr-tb;fill:#000000;fill-opacity:1;fill-rule:nonzero;stroke:none"
               transform="matrix(1,0,0,-1,657.333,31.5)"><tspan
                 id="tspan94"
                 y="0"
                 x="0 6">70</tspan></text>
</g><path
             id="path96"
             style="fill:none;stroke:#000000;stroke-width:5;stroke-linecap:butt;stroke-linejoin:round;stroke-miterlimit:10;stroke-dasharray:none;stroke-opacity:1"
             d="m 7390.83,423.332 0,80" /><g
             transform="scale(10,10)"
             id="g98"><text
               id="text100"
               style="font-variant:normal;font-weight:normal;font-size:10px;font-family:'Courier 10 Pitch';-inkscape-font-specification:Courier;writing-mode:lr-tb;fill:#000000;fill-opacity:1;fill-rule:nonzero;stroke:none"
               transform="matrix(1,0,0,-1,733.083,31.5)"><tspan
                 id="tspan102"
                 y="0"
                 x="0 6">80</tspan></text>
</g><path
             id="path104"
             style="fill:none;stroke:#000000;stroke-width:5;stroke-linecap:butt;stroke-linejoin:round;stroke-miterlimit:10;stroke-dasharray:none;stroke-opacity:1"
             d="m 8148.33,423.332 0,80" /><g
             transform="scale(10,10)"
             id="g106"><text
               id="text108"
               style="font-variant:normal;font-weight:normal;font-size:10px;font-family:'Courier 10 Pitch';-inkscape-font-specification:Courier;writing-mode:lr-tb;fill:#000000;fill-opacity:1;fill-rule:nonzero;stroke:none"
               transform="matrix(1,0,0,-1,808.833,31.5)"><tspan
                 id="tspan110"
                 y="0"
                 x="0 6">90</tspan></text>
</g><path
             id="path112"
             style="fill:none;stroke:#000000;stroke-width:5;stroke-linecap:butt;stroke-linejoin:round;stroke-miterlimit:10;stroke-dasharray:none;stroke-opacity:1"
             d="m 8905,423.332 0,80" /><g
             transform="scale(10,10)"
             id="g114"><text
               id="text116"
               style="font-variant:normal;font-weight:normal;font-size:10px;font-family:'Courier 10 Pitch';-inkscape-font-specification:Courier;writing-mode:lr-tb;fill:#000000;fill-opacity:1;fill-rule:nonzero;stroke:none"
               transform="matrix(1,0,0,-1,881.5,31.5)"><tspan
                 id="tspan118"
                 y="0"
                 x="0 6 12">100</tspan></text>
</g><path
             id="path120"
             style="fill:none;stroke:#000000;stroke-width:5;stroke-linecap:butt;stroke-linejoin:round;stroke-miterlimit:10;stroke-dasharray:none;stroke-opacity:1"
             d="m 1333.33,423.332 79.17,0" /><g
             transform="scale(10,10)"
             id="g122"><text
               id="text124"
               style="font-variant:normal;font-weight:normal;font-size:10px;font-family:'Courier 10 Pitch';-inkscape-font-specification:Courier;writing-mode:lr-tb;fill:#000000;fill-opacity:1;fill-rule:nonzero;stroke:none"
               transform="matrix(1,0,0,-1,106.417,39.1668)"><tspan
                 id="tspan126"
                 y="0"
                 x="0 6 12 18">−500</tspan></text>
</g><path
             id="path128"
             style="fill:none;stroke:#000000;stroke-width:5;stroke-linecap:butt;stroke-linejoin:round;stroke-miterlimit:10;stroke-dasharray:none;stroke-opacity:1"
             d="m 1333.33,870.832 79.17,0" /><g
             transform="scale(10,10)"
             id="g130"><text
               id="text132"
               style="font-variant:normal;font-weight:normal;font-size:10px;font-family:'Courier 10 Pitch';-inkscape-font-specification:Courier;writing-mode:lr-tb;fill:#000000;fill-opacity:1;fill-rule:nonzero;stroke:none"
               transform="matrix(1,0,0,-1,124.417,83.9168)"><tspan
                 id="tspan134"
                 y="0"
                 x="0">0</tspan></text>
</g><path
             id="path136"
             style="fill:none;stroke:#000000;stroke-width:5;stroke-linecap:butt;stroke-linejoin:round;stroke-miterlimit:10;stroke-dasharray:none;stroke-opacity:1"
             d="m 1333.33,1317.5 79.17,0" /><g
             transform="scale(10,10)"
             id="g138"><text
               id="text140"
               style="font-variant:normal;font-weight:normal;font-size:10px;font-family:'Courier 10 Pitch';-inkscape-font-specification:Courier;writing-mode:lr-tb;fill:#000000;fill-opacity:1;fill-rule:nonzero;stroke:none"
               transform="matrix(1,0,0,-1,112.417,128.583)"><tspan
                 id="tspan142"
                 y="0"
                 x="0 6 12">500</tspan></text>
</g><path
             id="path144"
             style="fill:none;stroke:#000000;stroke-width:5;stroke-linecap:butt;stroke-linejoin:round;stroke-miterlimit:10;stroke-dasharray:none;stroke-opacity:1"
             d="m 1333.33,1764.17 79.17,0" /><g
             transform="scale(10,10)"
             id="g146"><text
               id="text148"
               style="font-variant:normal;font-weight:normal;font-size:10px;font-family:'Courier 10 Pitch';-inkscape-font-specification:Courier;writing-mode:lr-tb;fill:#000000;fill-opacity:1;fill-rule:nonzero;stroke:none"
               transform="matrix(1,0,0,-1,106.417,173.25)"><tspan
                 id="tspan150"
                 y="0"
                 x="0 6 12 18">1000</tspan></text>
</g><path
             id="path152"
             style="fill:none;stroke:#000000;stroke-width:5;stroke-linecap:butt;stroke-linejoin:round;stroke-miterlimit:10;stroke-dasharray:none;stroke-opacity:1"
             d="m 1333.33,2211.67 79.17,0" /><g
             transform="scale(10,10)"
             id="g154"><text
               id="text156"
               style="font-variant:normal;font-weight:normal;font-size:10px;font-family:'Courier 10 Pitch';-inkscape-font-specification:Courier;writing-mode:lr-tb;fill:#000000;fill-opacity:1;fill-rule:nonzero;stroke:none"
               transform="matrix(1,0,0,-1,106.417,218)"><tspan
                 id="tspan158"
                 y="0"
                 x="0 6 12 18">1500</tspan></text>
</g><path
             id="path160"
             style="fill:none;stroke:#000000;stroke-width:5;stroke-linecap:butt;stroke-linejoin:round;stroke-miterlimit:10;stroke-dasharray:none;stroke-opacity:1"
             d="m 1333.33,2658.33 79.17,0" /><g
             transform="scale(10,10)"
             id="g162"><text
               id="text164"
               style="font-variant:normal;font-weight:normal;font-size:10px;font-family:'Courier 10 Pitch';-inkscape-font-specification:Courier;writing-mode:lr-tb;fill:#000000;fill-opacity:1;fill-rule:nonzero;stroke:none"
               transform="matrix(1,0,0,-1,106.417,262.667)"><tspan
                 id="tspan166"
                 y="0"
                 x="0 6 12 18">2000</tspan></text>
</g><path
             id="path168"
             style="fill:none;stroke:#000000;stroke-width:5;stroke-linecap:butt;stroke-linejoin:round;stroke-miterlimit:10;stroke-dasharray:none;stroke-opacity:1"
             d="m 1333.33,3105 79.17,0" /><g
             transform="scale(10,10)"
             id="g170"><text
               id="text172"
               style="font-variant:normal;font-weight:normal;font-size:10px;font-family:'Courier 10 Pitch';-inkscape-font-specification:Courier;writing-mode:lr-tb;fill:#000000;fill-opacity:1;fill-rule:nonzero;stroke:none"
               transform="matrix(1,0,0,-1,106.417,307.333)"><tspan
                 id="tspan174"
                 y="0"
                 x="0 6 12 18">2500</tspan></text>
</g><path
             id="path176"
             style="fill:none;stroke:#000000;stroke-width:5;stroke-linecap:butt;stroke-linejoin:round;stroke-miterlimit:10;stroke-dasharray:none;stroke-opacity:1"
             d="m 1333.33,3551.67 79.17,0" /><g
             transform="scale(10,10)"
             id="g178"><text
               id="text180"
               style="font-variant:normal;font-weight:normal;font-size:10px;font-family:'Courier 10 Pitch';-inkscape-font-specification:Courier;writing-mode:lr-tb;fill:#000000;fill-opacity:1;fill-rule:nonzero;stroke:none"
               transform="matrix(1,0,0,-1,106.417,352)"><tspan
                 id="tspan182"
                 y="0"
                 x="0 6 12 18">3000</tspan></text>
</g></g></g><g
         id="g184"><g
           clip-path="url(#clipPath188)"
           id="g186"><path
             id="path192"
             style="fill:none;stroke:#007f00;stroke-width:20;stroke-linecap:butt;stroke-linejoin:round;stroke-miterlimit:10;stroke-dasharray:none;stroke-opacity:1"
             d="m 1408.33,870.832 75.84,0 75.83,0.836 303.33,0 75,-0.836 75.84,-0.832 227.5,0 75.83,0.832 75.83,0.836 75.84,0.832 75,0.832 227.5,0 75.83,-0.832 75.83,-1.668 75.84,-0.832 150.83,0 75.83,0.832 75.84,0.836 75.83,1.664 75.83,1.668 75.84,1.668 75.83,0.832 75,0 75.83,-1.668 75.84,-0.832 75.83,-1.668 75.83,-1.664 75.84,0 75.83,0.832 75,1.668 75.83,3.332 75.84,3.332 75.83,3.336 75.83,2.5 75.84,1.664 75.83,-0.832 75.83,-1.668 75,-2.5 75.84,-2.5 75.83,-0.832 75.83,0.832 75.84,3.336 75.83,5.832 75.83,7.5 75,8.332 75.84,6.668 75.83,5 75.83,1.668 75.84,0 75.83,-2.5 75.83,-3.336 75.84,-0.832 75,1.668 75.83,6.664 75.83,11.668 75.84,15.832 75.83,18.336 75.83,17.5 75.84,15.832 75,11.67 75.83,6.66 75.83,2.5 75.84,0.84 75.83,2.5 75.83,7.5 75.84,15.83 75.83,25.83 75,35 75.83,42.5 75.84,46.67 75.83,45.83 75.83,40.84 75.84,34.16 75.83,26.67 75,22.5 75.83,23.33 75.84,31.67 75.83,45.83 75.83,65.84 75.84,87.5 75.83,106.66 75.83,122.5 75,129.17 75.84,129.17 75.83,121.66 75.83,112.5 75.84,106.67 75.83,108.33 75.83,123.34 75,150 75.84,190.83 75.83,239.17 75.83,288.33" /><path
             id="path194"
             style="fill:none;stroke:#ff0000;stroke-width:20;stroke-linecap:butt;stroke-linejoin:round;stroke-miterlimit:10;stroke-dasharray:none;stroke-opacity:1"
             d="m 1408.33,870.832 75.84,0 75.83,0.836 227.5,0 75.83,-0.836 75,-0.832 75.84,0 75.83,-0.832 151.67,0 75.83,0.832 75.83,0.832 75.84,0.836 75,0.832 151.66,0 75.84,-0.832 75.83,-0.836 75.83,-1.664 75.84,-0.836 150.83,0 75.83,0.836 75.84,1.664 75.83,1.668 75.83,0.832 75.84,0.836 75.83,0 75,-0.836 75.83,-1.664 75.84,-1.668 75.83,-2.5 75.83,-1.668 75.84,0 75.83,0.836 75,2.5 75.83,2.5 75.84,3.332 75.83,2.5 75.83,0.832 75.84,-0.832 75.83,-2.5 75.83,-3.332 75,-4.168 75.84,-3.332 75.83,-1.668 75.83,0 75.84,3.332 75.83,4.168 75.83,5.832 75,5.836 75.84,3.332 75.83,0 75.83,-2.5 75.84,-5.832 75.83,-6.668 75.83,-7.5 75.84,-5 75,-1.668 75.83,3.336 75.83,7.5 75.84,10 75.83,10.832 75.83,9.168 75.84,4.164 75,-0.832 75.83,-7.5 75.83,-11.668 75.84,-14.164 L 6785,855 l 75.83,-5.832 75.84,0.832 75.83,10 75,17.5 75.83,20.832 75.84,20 75.83,15 75.83,5 75.84,-6.664 75.83,-16.668 75,-23.332 75.83,-23.336 75.84,-16.664 75.83,-4.168 75.83,11.668 75.84,27.5 75.83,38.332 75.83,42.5 75,37.5 75.84,23.33 75.83,3.34 75.83,-16.67 75.84,-33.332 75.83,-40 75.83,-35 75,-16.668 75.84,10.832 75.83,42.5 75.83,69.168" /><path
             id="path196"
             style="fill:none;stroke:#00ffff;stroke-width:20;stroke-linecap:butt;stroke-linejoin:round;stroke-miterlimit:10;stroke-dasharray:none;stroke-opacity:1"
             d="m 1408.33,870.832 75.84,0 75.83,0.836 227.5,0 75.83,-0.836 75,-0.832 75.84,0 75.83,-0.832 151.67,0 75.83,0.832 75.83,0.832 75.84,0.836 75,0.832 151.66,0 75.84,-0.832 75.83,-0.836 75.83,-1.664 75.84,-0.836 150.83,0 75.83,0.836 75.84,1.664 75.83,0.836 75.83,1.664 75.84,0.836 75.83,0 75,-0.836 75.83,-1.664 75.84,-2.5 75.83,-1.668 75.83,-1.668 75.84,0 75.83,0.836 75,1.664 75.83,3.336 75.84,2.5 75.83,2.5 75.83,0.832 75.84,-0.832 75.83,-2.5 75.83,-3.336 75,-4.164 75.84,-3.336 75.83,-1.664 75.83,0 75.84,2.5 75.83,5 75.83,5.832 75,5 75.84,3.332 75.83,0 75.83,-2.5 75.84,-5.832 75.83,-7.5 75.83,-7.5 75.84,-5.832 75,-1.668 75.83,3.332 75.83,6.668 75.84,10 75.83,10 75.83,8.332 75.84,4.168 75,-2.5 75.83,-7.5 75.83,-12.5 75.84,-14.168 75.83,-12.5 75.83,-7.5 75.84,0 75.83,9.168 75,15.832 75.83,19.168 75.84,18.332 75.83,12.5 75.83,2.5 75.84,-9.164 75.83,-19.168 75,-25.832 75.83,-25.836 75.84,-20 75.83,-7.5 75.83,7.5 75.84,22.5 75.83,33.336 75.83,36.664 75,30.836 75.84,15.832 75.83,-4.168 75.83,-25.832 75.84,-42.5 75.83,-50 75.83,-45 75,-29.168 75.84,-2.5 75.83,27.5 75.83,52.5" /><path
             id="path198"
             style="fill:none;stroke:#ff00ff;stroke-width:20;stroke-linecap:butt;stroke-linejoin:round;stroke-miterlimit:10;stroke-dasharray:60;stroke-dashoffset:0;stroke-opacity:1"
             d="m 1408.33,870.832 75.84,0 75.83,0.836 227.5,0 75.83,-0.836 75,-0.832 75.84,0 75.83,-0.832 151.67,0 75.83,0.832 75.83,0.832 75.84,0.836 75,0.832 151.66,0 75.84,-0.832 75.83,-0.836 75.83,-1.664 75.84,-0.836 150.83,0 75.83,0.836 75.84,1.664 75.83,0.836 75.83,1.664 75.84,0.836 75.83,0 75,-0.836 75.83,-1.664 75.84,-2.5 75.83,-1.668 75.83,-1.668 75.84,0 75.83,0.836 75,1.664 75.83,3.336 75.84,2.5 75.83,2.5 75.83,0.832 75.84,-0.832 75.83,-2.5 75.83,-3.336 75,-4.164 75.84,-3.336 75.83,-1.664 75.83,0 75.84,2.5 75.83,5 75.83,5.832 75,5 75.84,3.332 75.83,0 75.83,-2.5 75.84,-5.832 75.83,-7.5 75.83,-7.5 75.84,-5 75,-1.668 75.83,2.5 75.83,6.668 75.84,10 75.83,10 75.83,8.332 75.84,4.168 75,-2.5 75.83,-7.5 75.83,-12.5 75.84,-14.168 75.83,-12.5 75.83,-7.5 75.84,0 75.83,9.168 75,15.832 75.83,19.168 75.84,18.332 75.83,12.5 75.83,2.5 75.84,-9.164 75.83,-19.168 75,-25 75.83,-26.668 75.84,-20 75.83,-7.5 75.83,7.5 75.84,22.5 75.83,33.336 75.83,36.664 75,30.836 75.84,15.832 75.83,-4.168 75.83,-25.832 75.84,-42.5 75.83,-50 75.83,-45 75,-29.168 75.84,-2.5 75.83,27.5 75.83,52.5" /></g></g><g
         id="g200"><g
           clip-path="url(#clipPath204)"
           id="g202"><g
             transform="scale(10,10)"
             id="g208"><text
               id="text210"
               style="font-variant:normal;font-weight:normal;font-size:16px;font-family:'Courier 10 Pitch';-inkscape-font-specification:Courier;writing-mode:lr-tb;fill:#000000;fill-opacity:1;fill-rule:nonzero;stroke:none"
               transform="matrix(1,0,0,-1,378.417,322.167)"><tspan
                 id="tspan212"
                 y="0"
                 x="0 9.6000004 19.200001 28.799999 38.400002 48 57.599998 67.199997 76.800003 86.400002 96 105.6 115.2 124.8 134.39999 144 153.60001 163.2 172.8 182.39999 192 201.60001 211.2 220.8 230.39999 240 249.60001 259.20001 268.79999 278.39999 288 297.60001">RK1, RK2, RK4, &amp; Exact Solutions</tspan></text>
</g><path
             id="path214"
             style="fill:#ffffff;fill-opacity:1;fill-rule:evenodd;stroke:none"
             d="m 1763.33,1987.5 944.168,0 0,910 -944.168,0 0,-910 z" /><path
             id="path216"
             style="fill:none;stroke:#ffffff;stroke-width:5;stroke-linecap:butt;stroke-linejoin:round;stroke-miterlimit:10;stroke-dasharray:none;stroke-opacity:1"
             d="m 1763.33,1987.5 0,910 944.17,0 0,-910 -944.17,0" /><path
             id="path218"
             style="fill:none;stroke:#000000;stroke-width:5;stroke-linecap:butt;stroke-linejoin:round;stroke-miterlimit:10;stroke-dasharray:none;stroke-opacity:1"
             d="m 1763.33,2897.5 944.17,0" /><path
             id="path220"
             style="fill:none;stroke:#000000;stroke-width:5;stroke-linecap:butt;stroke-linejoin:round;stroke-miterlimit:10;stroke-dasharray:none;stroke-opacity:1"
             d="m 1763.33,1987.5 944.17,0" /><path
             id="path222"
             style="fill:none;stroke:#000000;stroke-width:5;stroke-linecap:butt;stroke-linejoin:round;stroke-miterlimit:10;stroke-dasharray:none;stroke-opacity:1"
             d="m 2707.5,1987.5 0,910" /><path
             id="path224"
             style="fill:none;stroke:#000000;stroke-width:5;stroke-linecap:butt;stroke-linejoin:round;stroke-miterlimit:10;stroke-dasharray:none;stroke-opacity:1"
             d="m 1763.33,1987.5 0,910" /><path
             id="path226"
             style="fill:none;stroke:#000000;stroke-width:5;stroke-linecap:butt;stroke-linejoin:round;stroke-miterlimit:10;stroke-dasharray:none;stroke-opacity:1"
             d="m 1763.33,1987.5 944.17,0" /><path
             id="path228"
             style="fill:none;stroke:#000000;stroke-width:5;stroke-linecap:butt;stroke-linejoin:round;stroke-miterlimit:10;stroke-dasharray:none;stroke-opacity:1"
             d="m 1763.33,1987.5 0,910" /><path
             id="path230"
             style="fill:none;stroke:#000000;stroke-width:5;stroke-linecap:butt;stroke-linejoin:round;stroke-miterlimit:10;stroke-dasharray:none;stroke-opacity:1"
             d="m 1763.33,2897.5 944.17,0" /><path
             id="path232"
             style="fill:none;stroke:#000000;stroke-width:5;stroke-linecap:butt;stroke-linejoin:round;stroke-miterlimit:10;stroke-dasharray:none;stroke-opacity:1"
             d="m 1763.33,1987.5 944.17,0" /><path
             id="path234"
             style="fill:none;stroke:#000000;stroke-width:5;stroke-linecap:butt;stroke-linejoin:round;stroke-miterlimit:10;stroke-dasharray:none;stroke-opacity:1"
             d="m 2707.5,1987.5 0,910" /><path
             id="path236"
             style="fill:none;stroke:#000000;stroke-width:5;stroke-linecap:butt;stroke-linejoin:round;stroke-miterlimit:10;stroke-dasharray:none;stroke-opacity:1"
             d="m 1763.33,1987.5 0,910" /><g
             transform="scale(10,10)"
             id="g238"><text
               id="text240"
               style="font-variant:normal;font-weight:normal;font-size:12px;font-family:'Courier 10 Pitch';-inkscape-font-specification:Courier;writing-mode:lr-tb;fill:#000000;fill-opacity:1;fill-rule:nonzero;stroke:none"
               transform="matrix(1,0,0,-1,228.083,272.667)"><tspan
                 id="tspan242"
                 y="0"
                 x="0 7.1999998 14.4">RK1</tspan></text>
</g></g></g><g
         id="g244"><g
           clip-path="url(#clipPath248)"
           id="g246"><path
             id="path252"
             style="fill:none;stroke:#007f00;stroke-width:20;stroke-linecap:butt;stroke-linejoin:round;stroke-miterlimit:10;stroke-dasharray:none;stroke-opacity:1"
             d="m 1842.5,2766.67 397.5,0" /></g></g><g
         id="g254"><g
           clip-path="url(#clipPath258)"
           id="g256"><g
             transform="scale(10,10)"
             id="g262"><text
               id="text264"
               style="font-variant:normal;font-weight:normal;font-size:12px;font-family:'Courier 10 Pitch';-inkscape-font-specification:Courier;writing-mode:lr-tb;fill:#000000;fill-opacity:1;fill-rule:nonzero;stroke:none"
               transform="matrix(1,0,0,-1,228.083,251.083)"><tspan
                 id="tspan266"
                 y="0"
                 x="0 7.1999998 14.4">RK2</tspan></text>
</g></g></g><g
         id="g268"><g
           clip-path="url(#clipPath272)"
           id="g270"><path
             id="path276"
             style="fill:none;stroke:#ff0000;stroke-width:20;stroke-linecap:butt;stroke-linejoin:round;stroke-miterlimit:10;stroke-dasharray:none;stroke-opacity:1"
             d="m 1842.5,2550.83 397.5,0" /></g></g><g
         id="g278"><g
           clip-path="url(#clipPath282)"
           id="g280"><g
             transform="scale(10,10)"
             id="g286"><text
               id="text288"
               style="font-variant:normal;font-weight:normal;font-size:12px;font-family:'Courier 10 Pitch';-inkscape-font-specification:Courier;writing-mode:lr-tb;fill:#000000;fill-opacity:1;fill-rule:nonzero;stroke:none"
               transform="matrix(1,0,0,-1,228.083,229.5)"><tspan
                 id="tspan290"
                 y="0"
                 x="0 7.1999998 14.4">RK4</tspan></text>
</g></g></g><g
         id="g292"><g
           clip-path="url(#clipPath296)"
           id="g294"><path
             id="path300"
             style="fill:none;stroke:#00ffff;stroke-width:20;stroke-linecap:butt;stroke-linejoin:round;stroke-miterlimit:10;stroke-dasharray:none;stroke-opacity:1"
             d="m 1842.5,2335 397.5,0" /></g></g><g
         id="g302"><g
           clip-path="url(#clipPath306)"
           id="g304"><g
             transform="scale(10,10)"
             id="g310"><text
               id="text312"
               style="font-variant:normal;font-weight:normal;font-size:12px;font-family:'Courier 10 Pitch';-inkscape-font-specification:Courier;writing-mode:lr-tb;fill:#000000;fill-opacity:1;fill-rule:nonzero;stroke:none"
               transform="matrix(1,0,0,-1,228.083,207.917)"><tspan
                 id="tspan314"
                 y="0"
                 x="0 7.1999998 14.4 21.6 28.799999">Exact</tspan></text>
</g></g></g><g
         id="g316"><g
           clip-path="url(#clipPath320)"
           id="g318"><path
             id="path324"
             style="fill:none;stroke:#ff00ff;stroke-width:20;stroke-linecap:butt;stroke-linejoin:round;stroke-miterlimit:10;stroke-dasharray:60;stroke-dashoffset:0;stroke-opacity:1"
             d="m 1842.5,2119.17 397.5,0" /><path
             id="path326"
             style="fill:#ff00ff;fill-opacity:1;fill-rule:nonzero;stroke:none"
             d="m 2050.83,2119.17 c 0,-5.52 -4.48,-10 -10,-10 -5.52,0 -10,4.48 -10,10 0,5.52 4.48,10 10,10 5.52,0 10,-4.48 10,-10" /></g></g></g></g></svg>