<?xml version="1.0" encoding="UTF-8" standalone="no"?>
<svg
   xmlns:dc="http://purl.org/dc/elements/1.1/"
   xmlns:cc="http://creativecommons.org/ns#"
   xmlns:rdf="http://www.w3.org/1999/02/22-rdf-syntax-ns#"
   xmlns:svg="http://www.w3.org/2000/svg"
   xmlns="http://www.w3.org/2000/svg"
   viewBox="0 0 1281.25 491.25"
   height="491.25"
   width="1281.25"
   xml:space="preserve"
   version="1.1"
   id="svg2"><metadata
     id="metadata8"><rdf:RDF><cc:Work
         rdf:about=""><dc:format>image/svg+xml</dc:format><dc:type
           rdf:resource="http://purl.org/dc/dcmitype/StillImage" /></cc:Work></rdf:RDF></metadata><defs
     id="defs6"><clipPath
       id="clipPath204"
       clipPathUnits="userSpaceOnUse"><path
         id="path206"
         d="m 1333.33,3635 7951.67,0 0,-3203.332 -7951.67,0 0,3203.332 z" /></clipPath><clipPath
       id="clipPath254"
       clipPathUnits="userSpaceOnUse"><path
         id="path256"
         d="m 1873.33,2870.83 1255,0 0,-1011.66 -1255,0 0,1011.66 z" /></clipPath><clipPath
       id="clipPath270"
       clipPathUnits="userSpaceOnUse"><path
         id="path272"
         d="m 1873.33,2870.83 1255,0 0,-1011.66 -1255,0 0,1011.66 z" /></clipPath><clipPath
       id="clipPath286"
       clipPathUnits="userSpaceOnUse"><path
         id="path288"
         d="m 1873.33,2870.83 1255,0 0,-1011.66 -1255,0 0,1011.66 z" /></clipPath></defs><g
     transform="matrix(1.25,0,0,-1.25,0,491.25)"
     id="g10"><g
       transform="scale(0.1,0.1)"
       id="g12"><path
         id="path14"
         style="fill:#ffffff;fill-opacity:1;fill-rule:nonzero;stroke:none"
         d="m 0,0 10250,0 0,3930 L 0,3930 0,0 Z" /><path
         id="path16"
         style="fill:#ffffff;fill-opacity:1;fill-rule:evenodd;stroke:none"
         d="m 1333.33,432.5 7950.84,0 0,3203.33 -7950.84,0 0,-3203.33 z" /><path
         id="path18"
         style="fill:none;stroke:#ffffff;stroke-width:5;stroke-linecap:butt;stroke-linejoin:round;stroke-miterlimit:10;stroke-dasharray:none;stroke-opacity:1"
         d="m 1333.33,432.5 0,3203.33 7950.84,0 0,-3203.33 -7950.84,0" /><path
         id="path20"
         style="fill:none;stroke:#000000;stroke-width:5;stroke-linecap:butt;stroke-linejoin:round;stroke-miterlimit:10;stroke-dasharray:none;stroke-opacity:1"
         d="m 1333.33,432.5 7950.84,0" /><path
         id="path22"
         style="fill:none;stroke:#000000;stroke-width:5;stroke-linecap:butt;stroke-linejoin:round;stroke-miterlimit:10;stroke-dasharray:none;stroke-opacity:1"
         d="m 1333.33,432.5 0,3203.33" /><path
         id="path24"
         style="fill:none;stroke:#000000;stroke-width:5;stroke-linecap:butt;stroke-linejoin:round;stroke-miterlimit:10;stroke-dasharray:none;stroke-opacity:1"
         d="m 1333.33,432.5 0,80" /><g
         transform="scale(10,10)"
         id="g26"><text
           id="text28"
           style="font-variant:normal;font-weight:normal;font-size:10px;font-family:Helvetica;-inkscape-font-specification:Helvetica;writing-mode:lr-tb;fill:#000000;fill-opacity:1;fill-rule:nonzero;stroke:none"
           transform="matrix(1,0,0,-1,130.583,31.1668)"><tspan
             id="tspan30"
             y="0"
             x="0">1</tspan></text>
</g><path
         id="path32"
         style="fill:none;stroke:#000000;stroke-width:5;stroke-linecap:butt;stroke-linejoin:round;stroke-miterlimit:10;stroke-dasharray:none;stroke-opacity:1"
         d="m 2128.33,432.5 0,80" /><g
         transform="scale(10,10)"
         id="g34"><text
           id="text36"
           style="font-variant:normal;font-weight:normal;font-size:10px;font-family:Helvetica;-inkscape-font-specification:Helvetica;writing-mode:lr-tb;fill:#000000;fill-opacity:1;fill-rule:nonzero;stroke:none"
           transform="matrix(1,0,0,-1,210.083,31.1668)"><tspan
             id="tspan38"
             y="0"
             x="0">2</tspan></text>
</g><path
         id="path40"
         style="fill:none;stroke:#000000;stroke-width:5;stroke-linecap:butt;stroke-linejoin:round;stroke-miterlimit:10;stroke-dasharray:none;stroke-opacity:1"
         d="m 2923.33,432.5 0,80" /><g
         transform="scale(10,10)"
         id="g42"><text
           id="text44"
           style="font-variant:normal;font-weight:normal;font-size:10px;font-family:Helvetica;-inkscape-font-specification:Helvetica;writing-mode:lr-tb;fill:#000000;fill-opacity:1;fill-rule:nonzero;stroke:none"
           transform="matrix(1,0,0,-1,289.583,31.1668)"><tspan
             id="tspan46"
             y="0"
             x="0">3</tspan></text>
</g><path
         id="path48"
         style="fill:none;stroke:#000000;stroke-width:5;stroke-linecap:butt;stroke-linejoin:round;stroke-miterlimit:10;stroke-dasharray:none;stroke-opacity:1"
         d="m 3718.33,432.5 0,80" /><g
         transform="scale(10,10)"
         id="g50"><text
           id="text52"
           style="font-variant:normal;font-weight:normal;font-size:10px;font-family:Helvetica;-inkscape-font-specification:Helvetica;writing-mode:lr-tb;fill:#000000;fill-opacity:1;fill-rule:nonzero;stroke:none"
           transform="matrix(1,0,0,-1,369.083,31.1668)"><tspan
             id="tspan54"
             y="0"
             x="0">4</tspan></text>
</g><path
         id="path56"
         style="fill:none;stroke:#000000;stroke-width:5;stroke-linecap:butt;stroke-linejoin:round;stroke-miterlimit:10;stroke-dasharray:none;stroke-opacity:1"
         d="m 4513.33,432.5 0,80" /><g
         transform="scale(10,10)"
         id="g58"><text
           id="text60"
           style="font-variant:normal;font-weight:normal;font-size:10px;font-family:Helvetica;-inkscape-font-specification:Helvetica;writing-mode:lr-tb;fill:#000000;fill-opacity:1;fill-rule:nonzero;stroke:none"
           transform="matrix(1,0,0,-1,448.583,31.1668)"><tspan
             id="tspan62"
             y="0"
             x="0">5</tspan></text>
</g><path
         id="path64"
         style="fill:none;stroke:#000000;stroke-width:5;stroke-linecap:butt;stroke-linejoin:round;stroke-miterlimit:10;stroke-dasharray:none;stroke-opacity:1"
         d="m 5308.33,432.5 0,80" /><g
         transform="scale(10,10)"
         id="g66"><text
           id="text68"
           style="font-variant:normal;font-weight:normal;font-size:10px;font-family:Helvetica;-inkscape-font-specification:Helvetica;writing-mode:lr-tb;fill:#000000;fill-opacity:1;fill-rule:nonzero;stroke:none"
           transform="matrix(1,0,0,-1,528.083,31.1668)"><tspan
             id="tspan70"
             y="0"
             x="0">6</tspan></text>
</g><path
         id="path72"
         style="fill:none;stroke:#000000;stroke-width:5;stroke-linecap:butt;stroke-linejoin:round;stroke-miterlimit:10;stroke-dasharray:none;stroke-opacity:1"
         d="m 6103.33,432.5 0,80" /><g
         transform="scale(10,10)"
         id="g74"><text
           id="text76"
           style="font-variant:normal;font-weight:normal;font-size:10px;font-family:Helvetica;-inkscape-font-specification:Helvetica;writing-mode:lr-tb;fill:#000000;fill-opacity:1;fill-rule:nonzero;stroke:none"
           transform="matrix(1,0,0,-1,607.583,31.1668)"><tspan
             id="tspan78"
             y="0"
             x="0">7</tspan></text>
</g><path
         id="path80"
         style="fill:none;stroke:#000000;stroke-width:5;stroke-linecap:butt;stroke-linejoin:round;stroke-miterlimit:10;stroke-dasharray:none;stroke-opacity:1"
         d="m 6898.33,432.5 0,80" /><g
         transform="scale(10,10)"
         id="g82"><text
           id="text84"
           style="font-variant:normal;font-weight:normal;font-size:10px;font-family:Helvetica;-inkscape-font-specification:Helvetica;writing-mode:lr-tb;fill:#000000;fill-opacity:1;fill-rule:nonzero;stroke:none"
           transform="matrix(1,0,0,-1,687.083,31.1668)"><tspan
             id="tspan86"
             y="0"
             x="0">8</tspan></text>
</g><path
         id="path88"
         style="fill:none;stroke:#000000;stroke-width:5;stroke-linecap:butt;stroke-linejoin:round;stroke-miterlimit:10;stroke-dasharray:none;stroke-opacity:1"
         d="m 7693.33,432.5 0,80" /><g
         transform="scale(10,10)"
         id="g90"><text
           id="text92"
           style="font-variant:normal;font-weight:normal;font-size:10px;font-family:Helvetica;-inkscape-font-specification:Helvetica;writing-mode:lr-tb;fill:#000000;fill-opacity:1;fill-rule:nonzero;stroke:none"
           transform="matrix(1,0,0,-1,766.583,31.1668)"><tspan
             id="tspan94"
             y="0"
             x="0">9</tspan></text>
</g><path
         id="path96"
         style="fill:none;stroke:#000000;stroke-width:5;stroke-linecap:butt;stroke-linejoin:round;stroke-miterlimit:10;stroke-dasharray:none;stroke-opacity:1"
         d="m 8488.34,432.5 0,80" /><g
         transform="scale(10,10)"
         id="g98"><text
           id="text100"
           style="font-variant:normal;font-weight:normal;font-size:10px;font-family:Helvetica;-inkscape-font-specification:Helvetica;writing-mode:lr-tb;fill:#000000;fill-opacity:1;fill-rule:nonzero;stroke:none"
           transform="matrix(1,0,0,-1,843.334,31.1668)"><tspan
             id="tspan102"
             y="0"
             x="0 5.5599999">10</tspan></text>
</g><path
         id="path104"
         style="fill:none;stroke:#000000;stroke-width:5;stroke-linecap:butt;stroke-linejoin:round;stroke-miterlimit:10;stroke-dasharray:none;stroke-opacity:1"
         d="m 9284.17,432.5 0,80" /><g
         transform="scale(10,10)"
         id="g106"><text
           id="text108"
           style="font-variant:normal;font-weight:normal;font-size:10px;font-family:Helvetica;-inkscape-font-specification:Helvetica;writing-mode:lr-tb;fill:#000000;fill-opacity:1;fill-rule:nonzero;stroke:none"
           transform="matrix(1,0,0,-1,922.917,31.1668)"><tspan
             id="tspan110"
             y="0"
             x="0 5.5599999">11</tspan></text>
</g><path
         id="path112"
         style="fill:none;stroke:#000000;stroke-width:5;stroke-linecap:butt;stroke-linejoin:round;stroke-miterlimit:10;stroke-dasharray:none;stroke-opacity:1"
         d="m 1333.33,432.5 79.17,0" /><g
         transform="scale(10,10)"
         id="g114"><text
           id="text116"
           style="font-variant:normal;font-weight:normal;font-size:10px;font-family:Helvetica;-inkscape-font-specification:Helvetica;writing-mode:lr-tb;fill:#000000;fill-opacity:1;fill-rule:nonzero;stroke:none"
           transform="matrix(1,0,0,-1,102.417,39.5832)"><tspan
             id="tspan118"
             y="0"
             x="0 5.8400002 11.4 16.959999 22.52">−9000</tspan></text>
</g><path
         id="path120"
         style="fill:none;stroke:#000000;stroke-width:5;stroke-linecap:butt;stroke-linejoin:round;stroke-miterlimit:10;stroke-dasharray:none;stroke-opacity:1"
         d="m 1333.33,753.332 79.17,0" /><g
         transform="scale(10,10)"
         id="g122"><text
           id="text124"
           style="font-variant:normal;font-weight:normal;font-size:10px;font-family:Helvetica;-inkscape-font-specification:Helvetica;writing-mode:lr-tb;fill:#000000;fill-opacity:1;fill-rule:nonzero;stroke:none"
           transform="matrix(1,0,0,-1,102.417,71.6668)"><tspan
             id="tspan126"
             y="0"
             x="0 5.8400002 11.4 16.959999 22.52">−8000</tspan></text>
</g><path
         id="path128"
         style="fill:none;stroke:#000000;stroke-width:5;stroke-linecap:butt;stroke-linejoin:round;stroke-miterlimit:10;stroke-dasharray:none;stroke-opacity:1"
         d="m 1333.33,1073.33 79.17,0" /><g
         transform="scale(10,10)"
         id="g130"><text
           id="text132"
           style="font-variant:normal;font-weight:normal;font-size:10px;font-family:Helvetica;-inkscape-font-specification:Helvetica;writing-mode:lr-tb;fill:#000000;fill-opacity:1;fill-rule:nonzero;stroke:none"
           transform="matrix(1,0,0,-1,102.417,103.667)"><tspan
             id="tspan134"
             y="0"
             x="0 5.8400002 11.4 16.959999 22.52">−7000</tspan></text>
</g><path
         id="path136"
         style="fill:none;stroke:#000000;stroke-width:5;stroke-linecap:butt;stroke-linejoin:round;stroke-miterlimit:10;stroke-dasharray:none;stroke-opacity:1"
         d="m 1333.33,1393.33 79.17,0" /><g
         transform="scale(10,10)"
         id="g138"><text
           id="text140"
           style="font-variant:normal;font-weight:normal;font-size:10px;font-family:Helvetica;-inkscape-font-specification:Helvetica;writing-mode:lr-tb;fill:#000000;fill-opacity:1;fill-rule:nonzero;stroke:none"
           transform="matrix(1,0,0,-1,102.417,135.667)"><tspan
             id="tspan142"
             y="0"
             x="0 5.8400002 11.4 16.959999 22.52">−6000</tspan></text>
</g><path
         id="path144"
         style="fill:none;stroke:#000000;stroke-width:5;stroke-linecap:butt;stroke-linejoin:round;stroke-miterlimit:10;stroke-dasharray:none;stroke-opacity:1"
         d="m 1333.33,1714.17 79.17,0" /><g
         transform="scale(10,10)"
         id="g146"><text
           id="text148"
           style="font-variant:normal;font-weight:normal;font-size:10px;font-family:Helvetica;-inkscape-font-specification:Helvetica;writing-mode:lr-tb;fill:#000000;fill-opacity:1;fill-rule:nonzero;stroke:none"
           transform="matrix(1,0,0,-1,102.417,167.75)"><tspan
             id="tspan150"
             y="0"
             x="0 5.8400002 11.4 16.959999 22.52">−5000</tspan></text>
</g><path
         id="path152"
         style="fill:none;stroke:#000000;stroke-width:5;stroke-linecap:butt;stroke-linejoin:round;stroke-miterlimit:10;stroke-dasharray:none;stroke-opacity:1"
         d="m 1333.33,2034.17 79.17,0" /><g
         transform="scale(10,10)"
         id="g154"><text
           id="text156"
           style="font-variant:normal;font-weight:normal;font-size:10px;font-family:Helvetica;-inkscape-font-specification:Helvetica;writing-mode:lr-tb;fill:#000000;fill-opacity:1;fill-rule:nonzero;stroke:none"
           transform="matrix(1,0,0,-1,102.417,199.75)"><tspan
             id="tspan158"
             y="0"
             x="0 5.8400002 11.4 16.959999 22.52">−4000</tspan></text>
</g><path
         id="path160"
         style="fill:none;stroke:#000000;stroke-width:5;stroke-linecap:butt;stroke-linejoin:round;stroke-miterlimit:10;stroke-dasharray:none;stroke-opacity:1"
         d="m 1333.33,2354.17 79.17,0" /><g
         transform="scale(10,10)"
         id="g162"><text
           id="text164"
           style="font-variant:normal;font-weight:normal;font-size:10px;font-family:Helvetica;-inkscape-font-specification:Helvetica;writing-mode:lr-tb;fill:#000000;fill-opacity:1;fill-rule:nonzero;stroke:none"
           transform="matrix(1,0,0,-1,102.417,231.75)"><tspan
             id="tspan166"
             y="0"
             x="0 5.8400002 11.4 16.959999 22.52">−3000</tspan></text>
</g><path
         id="path168"
         style="fill:none;stroke:#000000;stroke-width:5;stroke-linecap:butt;stroke-linejoin:round;stroke-miterlimit:10;stroke-dasharray:none;stroke-opacity:1"
         d="m 1333.33,2675 79.17,0" /><g
         transform="scale(10,10)"
         id="g170"><text
           id="text172"
           style="font-variant:normal;font-weight:normal;font-size:10px;font-family:Helvetica;-inkscape-font-specification:Helvetica;writing-mode:lr-tb;fill:#000000;fill-opacity:1;fill-rule:nonzero;stroke:none"
           transform="matrix(1,0,0,-1,102.417,263.833)"><tspan
             id="tspan174"
             y="0"
             x="0 5.8400002 11.4 16.959999 22.52">−2000</tspan></text>
</g><path
         id="path176"
         style="fill:none;stroke:#000000;stroke-width:5;stroke-linecap:butt;stroke-linejoin:round;stroke-miterlimit:10;stroke-dasharray:none;stroke-opacity:1"
         d="m 1333.33,2995 79.17,0" /><g
         transform="scale(10,10)"
         id="g178"><text
           id="text180"
           style="font-variant:normal;font-weight:normal;font-size:10px;font-family:Helvetica;-inkscape-font-specification:Helvetica;writing-mode:lr-tb;fill:#000000;fill-opacity:1;fill-rule:nonzero;stroke:none"
           transform="matrix(1,0,0,-1,102.417,295.833)"><tspan
             id="tspan182"
             y="0"
             x="0 5.8400002 11.4 16.959999 22.52">−1000</tspan></text>
</g><path
         id="path184"
         style="fill:none;stroke:#000000;stroke-width:5;stroke-linecap:butt;stroke-linejoin:round;stroke-miterlimit:10;stroke-dasharray:none;stroke-opacity:1"
         d="m 1333.33,3315 79.17,0" /><g
         transform="scale(10,10)"
         id="g186"><text
           id="text188"
           style="font-variant:normal;font-weight:normal;font-size:10px;font-family:Helvetica;-inkscape-font-specification:Helvetica;writing-mode:lr-tb;fill:#000000;fill-opacity:1;fill-rule:nonzero;stroke:none"
           transform="matrix(1,0,0,-1,124.917,327.833)"><tspan
             id="tspan190"
             y="0"
             x="0">0</tspan></text>
</g><path
         id="path192"
         style="fill:none;stroke:#000000;stroke-width:5;stroke-linecap:butt;stroke-linejoin:round;stroke-miterlimit:10;stroke-dasharray:none;stroke-opacity:1"
         d="m 1333.33,3635.83 79.17,0" /><g
         transform="scale(10,10)"
         id="g194"><text
           id="text196"
           style="font-variant:normal;font-weight:normal;font-size:10px;font-family:Helvetica;-inkscape-font-specification:Helvetica;writing-mode:lr-tb;fill:#000000;fill-opacity:1;fill-rule:nonzero;stroke:none"
           transform="matrix(1,0,0,-1,108.25,359.917)"><tspan
             id="tspan198"
             y="0"
             x="0 5.5599999 11.12 16.68">1000</tspan></text>
</g><g
         id="g200"><g
           clip-path="url(#clipPath204)"
           id="g202"><path
             id="path208"
             style="fill:none;stroke:#0000ff;stroke-width:20;stroke-linecap:butt;stroke-linejoin:round;stroke-miterlimit:10;stroke-dasharray:none;stroke-opacity:1"
             d="m 1333.33,3315 795,-0.83 795,-0.84 795,0 795,-1.66 795,-15 795,-41.67 795,-90 795,-215 795,-620 795.84,-1793.332" /><path
             id="path210"
             style="fill:none;stroke:#008000;stroke-width:20;stroke-linecap:butt;stroke-linejoin:round;stroke-miterlimit:10;stroke-dasharray:none;stroke-opacity:1"
             d="m 1333.33,3315 795,0 795,-0.83 795,1.66 795,0 795,-11.66 795,8.33 795,-7.5 795,19.17 795,4.16 795.84,-84.16" /><path
             id="path212"
             style="fill:none;stroke:#ff0000;stroke-width:20;stroke-linecap:butt;stroke-linejoin:round;stroke-miterlimit:10;stroke-dasharray:none;stroke-opacity:1"
             d="m 1333.33,3315 1590,0 795,0.83 795,1.67 795,-2.5 795,-5.83 795,1.66 795,17.5 795,11.67 795.84,-37.5" /></g></g><g
         transform="scale(10,10)"
         id="g214"><text
           id="text216"
           style="font-variant:normal;font-weight:normal;font-size:16px;font-family:'Courier 10 Pitch';-inkscape-font-specification:Courier;writing-mode:lr-tb;fill:#000000;fill-opacity:1;fill-rule:nonzero;stroke:none"
           transform="matrix(1,0,0,-1,511.75,340.917)"><tspan
             id="tspan218"
             y="0"
             x="0 9.6000004 19.200001 28.799999 38.400002">h = 1</tspan></text>
</g><path
         id="path220"
         style="fill:#ffffff;fill-opacity:1;fill-rule:evenodd;stroke:none"
         d="m 1873.33,1860 1254.17,0 0,1010.83 -1254.17,0 0,-1010.83 z" /><path
         id="path222"
         style="fill:none;stroke:#ffffff;stroke-width:5;stroke-linecap:butt;stroke-linejoin:round;stroke-miterlimit:10;stroke-dasharray:none;stroke-opacity:1"
         d="m 1873.33,1860 0,1010.83 1254.17,0 0,-1010.83 -1254.17,0" /><path
         id="path224"
         style="fill:none;stroke:#000000;stroke-width:5;stroke-linecap:butt;stroke-linejoin:round;stroke-miterlimit:10;stroke-dasharray:none;stroke-opacity:1"
         d="m 1873.33,2870.83 1254.17,0" /><path
         id="path226"
         style="fill:none;stroke:#000000;stroke-width:5;stroke-linecap:butt;stroke-linejoin:round;stroke-miterlimit:10;stroke-dasharray:none;stroke-opacity:1"
         d="m 1873.33,1860 1254.17,0" /><path
         id="path228"
         style="fill:none;stroke:#000000;stroke-width:5;stroke-linecap:butt;stroke-linejoin:round;stroke-miterlimit:10;stroke-dasharray:none;stroke-opacity:1"
         d="m 3127.5,1860 0,1010.83" /><path
         id="path230"
         style="fill:none;stroke:#000000;stroke-width:5;stroke-linecap:butt;stroke-linejoin:round;stroke-miterlimit:10;stroke-dasharray:none;stroke-opacity:1"
         d="m 1873.33,1860 0,1010.83" /><path
         id="path232"
         style="fill:none;stroke:#000000;stroke-width:5;stroke-linecap:butt;stroke-linejoin:round;stroke-miterlimit:10;stroke-dasharray:none;stroke-opacity:1"
         d="m 1873.33,1860 1254.17,0" /><path
         id="path234"
         style="fill:none;stroke:#000000;stroke-width:5;stroke-linecap:butt;stroke-linejoin:round;stroke-miterlimit:10;stroke-dasharray:none;stroke-opacity:1"
         d="m 1873.33,1860 0,1010.83" /><path
         id="path236"
         style="fill:none;stroke:#000000;stroke-width:5;stroke-linecap:butt;stroke-linejoin:round;stroke-miterlimit:10;stroke-dasharray:none;stroke-opacity:1"
         d="m 1873.33,2870.83 1254.17,0" /><path
         id="path238"
         style="fill:none;stroke:#000000;stroke-width:5;stroke-linecap:butt;stroke-linejoin:round;stroke-miterlimit:10;stroke-dasharray:none;stroke-opacity:1"
         d="m 1873.33,1860 1254.17,0" /><path
         id="path240"
         style="fill:none;stroke:#000000;stroke-width:5;stroke-linecap:butt;stroke-linejoin:round;stroke-miterlimit:10;stroke-dasharray:none;stroke-opacity:1"
         d="m 3127.5,1860 0,1010.83" /><path
         id="path242"
         style="fill:none;stroke:#000000;stroke-width:5;stroke-linecap:butt;stroke-linejoin:round;stroke-miterlimit:10;stroke-dasharray:none;stroke-opacity:1"
         d="m 1873.33,1860 0,1010.83" /><g
         transform="scale(10,10)"
         id="g244"><text
           id="text246"
           style="font-variant:normal;font-weight:normal;font-size:12px;font-family:'Courier 10 Pitch';-inkscape-font-specification:Courier;writing-mode:lr-tb;fill:#000000;fill-opacity:1;fill-rule:nonzero;stroke:none"
           transform="matrix(1,0,0,-1,254.583,264.083)"><tspan
             id="tspan248"
             y="0"
             x="0 7.1999998 14.4">RK4</tspan></text>
</g><g
         id="g250"><g
           clip-path="url(#clipPath254)"
           id="g252"><path
             id="path258"
             style="fill:none;stroke:#0000ff;stroke-width:20;stroke-linecap:butt;stroke-linejoin:round;stroke-miterlimit:10;stroke-dasharray:none;stroke-opacity:1"
             d="m 1976.67,2680 516.66,0" /></g></g><g
         transform="scale(10,10)"
         id="g260"><text
           id="text262"
           style="font-variant:normal;font-weight:normal;font-size:12px;font-family:'Courier 10 Pitch';-inkscape-font-specification:Courier;writing-mode:lr-tb;fill:#000000;fill-opacity:1;fill-rule:nonzero;stroke:none"
           transform="matrix(1,0,0,-1,254.583,232.583)"><tspan
             id="tspan264"
             y="0"
             x="0 7.1999998 14.4 21.6 28.799999">Error</tspan></text>
</g><g
         id="g266"><g
           clip-path="url(#clipPath270)"
           id="g268"><path
             id="path274"
             style="fill:none;stroke:#008000;stroke-width:20;stroke-linecap:butt;stroke-linejoin:round;stroke-miterlimit:10;stroke-dasharray:none;stroke-opacity:1"
             d="m 1976.67,2365.83 516.66,0" /></g></g><g
         transform="scale(10,10)"
         id="g276"><text
           id="text278"
           style="font-variant:normal;font-weight:normal;font-size:12px;font-family:'Courier 10 Pitch';-inkscape-font-specification:Courier;writing-mode:lr-tb;fill:#000000;fill-opacity:1;fill-rule:nonzero;stroke:none"
           transform="matrix(1,0,0,-1,254.583,201.083)"><tspan
             id="tspan280"
             y="0"
             x="0 7.1999998 14.4 21.6 28.799999">Exact</tspan></text>
</g><g
         id="g282"><g
           clip-path="url(#clipPath286)"
           id="g284"><path
             id="path290"
             style="fill:none;stroke:#ff0000;stroke-width:20;stroke-linecap:butt;stroke-linejoin:round;stroke-miterlimit:10;stroke-dasharray:none;stroke-opacity:1"
             d="m 1976.67,2051.67 516.66,0" /></g></g></g></g></svg>