<?xml version="1.0" encoding="UTF-8" standalone="no"?>
<svg
   xmlns:dc="http://purl.org/dc/elements/1.1/"
   xmlns:cc="http://creativecommons.org/ns#"
   xmlns:rdf="http://www.w3.org/1999/02/22-rdf-syntax-ns#"
   xmlns:svg="http://www.w3.org/2000/svg"
   xmlns="http://www.w3.org/2000/svg"
   viewBox="0 0 1281.25 487.5"
   height="487.5"
   width="1281.25"
   xml:space="preserve"
   version="1.1"
   id="svg2"><metadata
     id="metadata8"><rdf:RDF><cc:Work
         rdf:about=""><dc:format>image/svg+xml</dc:format><dc:type
           rdf:resource="http://purl.org/dc/dcmitype/StillImage" /></cc:Work></rdf:RDF></metadata><defs
     id="defs6"><clipPath
       id="clipPath124"
       clipPathUnits="userSpaceOnUse"><path
         id="path126"
         d="m 2413.33,3645 5446.67,0 0,-3179.168 -5446.67,0 0,3179.168 z" /></clipPath><clipPath
       id="clipPath174"
       clipPathUnits="userSpaceOnUse"><path
         id="path176"
         d="m 2850,1705 938.33,0 0,-723.332 -938.33,0 0,723.332 z" /></clipPath><clipPath
       id="clipPath190"
       clipPathUnits="userSpaceOnUse"><path
         id="path192"
         d="m 2850,1705 938.33,0 0,-723.332 -938.33,0 0,723.332 z" /></clipPath><clipPath
       id="clipPath206"
       clipPathUnits="userSpaceOnUse"><path
         id="path208"
         d="m 2850,1705 938.33,0 0,-723.332 -938.33,0 0,723.332 z" /></clipPath></defs><g
     transform="matrix(1.25,0,0,-1.25,0,487.5)"
     id="g10"><g
       transform="scale(0.1,0.1)"
       id="g12"><path
         id="path14"
         style="fill:#ffffff;fill-opacity:1;fill-rule:nonzero;stroke:none"
         d="m 0,0 10250,0 0,3900 L 0,3900 0,0 Z" /><path
         id="path16"
         style="fill:#ffffff;fill-opacity:1;fill-rule:evenodd;stroke:none"
         d="m 2413.33,466.668 5445.84,0 0,3179.16 -5445.84,0 0,-3179.16 z" /><path
         id="path18"
         style="fill:none;stroke:#ffffff;stroke-width:5;stroke-linecap:butt;stroke-linejoin:round;stroke-miterlimit:10;stroke-dasharray:none;stroke-opacity:1"
         d="m 2413.33,466.668 0,3179.162 5445.84,0 0,-3179.162 -5445.84,0" /><path
         id="path20"
         style="fill:none;stroke:#000000;stroke-width:5;stroke-linecap:butt;stroke-linejoin:round;stroke-miterlimit:10;stroke-dasharray:none;stroke-opacity:1"
         d="m 2413.33,466.668 5445.84,0" /><path
         id="path22"
         style="fill:none;stroke:#000000;stroke-width:5;stroke-linecap:butt;stroke-linejoin:round;stroke-miterlimit:10;stroke-dasharray:none;stroke-opacity:1"
         d="m 2413.33,466.668 0,3179.162" /><path
         id="path24"
         style="fill:none;stroke:#000000;stroke-width:5;stroke-linecap:butt;stroke-linejoin:round;stroke-miterlimit:10;stroke-dasharray:none;stroke-opacity:1"
         d="m 2413.33,466.668 0,55" /><g
         transform="scale(10,10)"
         id="g26"><text
           id="text28"
           style="font-variant:normal;font-weight:normal;font-size:10px;font-family:Helvetica;-inkscape-font-specification:Helvetica;writing-mode:lr-tb;fill:#000000;fill-opacity:1;fill-rule:nonzero;stroke:none"
           transform="matrix(1,0,0,-1,238.583,34.5832)"><tspan
             id="tspan30"
             y="0"
             x="0">0</tspan></text>
</g><path
         id="path32"
         style="fill:none;stroke:#000000;stroke-width:5;stroke-linecap:butt;stroke-linejoin:round;stroke-miterlimit:10;stroke-dasharray:none;stroke-opacity:1"
         d="m 3596.67,466.668 0,55" /><g
         transform="scale(10,10)"
         id="g34"><text
           id="text36"
           style="font-variant:normal;font-weight:normal;font-size:10px;font-family:Helvetica;-inkscape-font-specification:Helvetica;writing-mode:lr-tb;fill:#000000;fill-opacity:1;fill-rule:nonzero;stroke:none"
           transform="matrix(1,0,0,-1,356.917,34.5832)"><tspan
             id="tspan38"
             y="0"
             x="0">5</tspan></text>
</g><path
         id="path40"
         style="fill:none;stroke:#000000;stroke-width:5;stroke-linecap:butt;stroke-linejoin:round;stroke-miterlimit:10;stroke-dasharray:none;stroke-opacity:1"
         d="m 4780.83,466.668 0,55" /><g
         transform="scale(10,10)"
         id="g42"><text
           id="text44"
           style="font-variant:normal;font-weight:normal;font-size:10px;font-family:Helvetica;-inkscape-font-specification:Helvetica;writing-mode:lr-tb;fill:#000000;fill-opacity:1;fill-rule:nonzero;stroke:none"
           transform="matrix(1,0,0,-1,472.583,34.5832)"><tspan
             id="tspan46"
             y="0"
             x="0 5.5599999">10</tspan></text>
</g><path
         id="path48"
         style="fill:none;stroke:#000000;stroke-width:5;stroke-linecap:butt;stroke-linejoin:round;stroke-miterlimit:10;stroke-dasharray:none;stroke-opacity:1"
         d="m 5964.17,466.668 0,55" /><g
         transform="scale(10,10)"
         id="g50"><text
           id="text52"
           style="font-variant:normal;font-weight:normal;font-size:10px;font-family:Helvetica;-inkscape-font-specification:Helvetica;writing-mode:lr-tb;fill:#000000;fill-opacity:1;fill-rule:nonzero;stroke:none"
           transform="matrix(1,0,0,-1,590.917,34.5832)"><tspan
             id="tspan54"
             y="0"
             x="0 5.5599999">15</tspan></text>
</g><path
         id="path56"
         style="fill:none;stroke:#000000;stroke-width:5;stroke-linecap:butt;stroke-linejoin:round;stroke-miterlimit:10;stroke-dasharray:none;stroke-opacity:1"
         d="m 7148.33,466.668 0,55" /><g
         transform="scale(10,10)"
         id="g58"><text
           id="text60"
           style="font-variant:normal;font-weight:normal;font-size:10px;font-family:Helvetica;-inkscape-font-specification:Helvetica;writing-mode:lr-tb;fill:#000000;fill-opacity:1;fill-rule:nonzero;stroke:none"
           transform="matrix(1,0,0,-1,709.333,34.5832)"><tspan
             id="tspan62"
             y="0"
             x="0 5.5599999">20</tspan></text>
</g><path
         id="path64"
         style="fill:none;stroke:#000000;stroke-width:5;stroke-linecap:butt;stroke-linejoin:round;stroke-miterlimit:10;stroke-dasharray:none;stroke-opacity:1"
         d="m 2413.33,466.668 54.17,0" /><g
         transform="scale(10,10)"
         id="g66"><text
           id="text68"
           style="font-variant:normal;font-weight:normal;font-size:10px;font-family:Helvetica;-inkscape-font-specification:Helvetica;writing-mode:lr-tb;fill:#000000;fill-opacity:1;fill-rule:nonzero;stroke:none"
           transform="matrix(1,0,0,-1,215.917,43)"><tspan
             id="tspan70"
             y="0"
             x="0 5.8400002 11.4 16.959999">−200</tspan></text>
</g><path
         id="path72"
         style="fill:none;stroke:#000000;stroke-width:5;stroke-linecap:butt;stroke-linejoin:round;stroke-miterlimit:10;stroke-dasharray:none;stroke-opacity:1"
         d="m 2413.33,996.668 54.17,0" /><g
         transform="scale(10,10)"
         id="g74"><text
           id="text76"
           style="font-variant:normal;font-weight:normal;font-size:10px;font-family:Helvetica;-inkscape-font-specification:Helvetica;writing-mode:lr-tb;fill:#000000;fill-opacity:1;fill-rule:nonzero;stroke:none"
           transform="matrix(1,0,0,-1,215.917,96)"><tspan
             id="tspan78"
             y="0"
             x="0 5.8400002 11.4 16.959999">−150</tspan></text>
</g><path
         id="path80"
         style="fill:none;stroke:#000000;stroke-width:5;stroke-linecap:butt;stroke-linejoin:round;stroke-miterlimit:10;stroke-dasharray:none;stroke-opacity:1"
         d="m 2413.33,1526.67 54.17,0" /><g
         transform="scale(10,10)"
         id="g82"><text
           id="text84"
           style="font-variant:normal;font-weight:normal;font-size:10px;font-family:Helvetica;-inkscape-font-specification:Helvetica;writing-mode:lr-tb;fill:#000000;fill-opacity:1;fill-rule:nonzero;stroke:none"
           transform="matrix(1,0,0,-1,215.917,149)"><tspan
             id="tspan86"
             y="0"
             x="0 5.8400002 11.4 16.959999">−100</tspan></text>
</g><path
         id="path88"
         style="fill:none;stroke:#000000;stroke-width:5;stroke-linecap:butt;stroke-linejoin:round;stroke-miterlimit:10;stroke-dasharray:none;stroke-opacity:1"
         d="m 2413.33,2055.83 54.17,0" /><g
         transform="scale(10,10)"
         id="g90"><text
           id="text92"
           style="font-variant:normal;font-weight:normal;font-size:10px;font-family:Helvetica;-inkscape-font-specification:Helvetica;writing-mode:lr-tb;fill:#000000;fill-opacity:1;fill-rule:nonzero;stroke:none"
           transform="matrix(1,0,0,-1,221.5,201.917)"><tspan
             id="tspan94"
             y="0"
             x="0 5.8400002 11.4">−50</tspan></text>
</g><path
         id="path96"
         style="fill:none;stroke:#000000;stroke-width:5;stroke-linecap:butt;stroke-linejoin:round;stroke-miterlimit:10;stroke-dasharray:none;stroke-opacity:1"
         d="m 2413.33,2585.83 54.17,0" /><g
         transform="scale(10,10)"
         id="g98"><text
           id="text100"
           style="font-variant:normal;font-weight:normal;font-size:10px;font-family:Helvetica;-inkscape-font-specification:Helvetica;writing-mode:lr-tb;fill:#000000;fill-opacity:1;fill-rule:nonzero;stroke:none"
           transform="matrix(1,0,0,-1,232.917,254.917)"><tspan
             id="tspan102"
             y="0"
             x="0">0</tspan></text>
</g><path
         id="path104"
         style="fill:none;stroke:#000000;stroke-width:5;stroke-linecap:butt;stroke-linejoin:round;stroke-miterlimit:10;stroke-dasharray:none;stroke-opacity:1"
         d="m 2413.33,3115.83 54.17,0" /><g
         transform="scale(10,10)"
         id="g106"><text
           id="text108"
           style="font-variant:normal;font-weight:normal;font-size:10px;font-family:Helvetica;-inkscape-font-specification:Helvetica;writing-mode:lr-tb;fill:#000000;fill-opacity:1;fill-rule:nonzero;stroke:none"
           transform="matrix(1,0,0,-1,227.333,307.917)"><tspan
             id="tspan110"
             y="0"
             x="0 5.5599999">50</tspan></text>
</g><path
         id="path112"
         style="fill:none;stroke:#000000;stroke-width:5;stroke-linecap:butt;stroke-linejoin:round;stroke-miterlimit:10;stroke-dasharray:none;stroke-opacity:1"
         d="m 2413.33,3645 54.17,0" /><g
         transform="scale(10,10)"
         id="g114"><text
           id="text116"
           style="font-variant:normal;font-weight:normal;font-size:10px;font-family:Helvetica;-inkscape-font-specification:Helvetica;writing-mode:lr-tb;fill:#000000;fill-opacity:1;fill-rule:nonzero;stroke:none"
           transform="matrix(1,0,0,-1,221.75,360.833)"><tspan
             id="tspan118"
             y="0"
             x="0 5.5599999 11.12">100</tspan></text>
</g><g
         id="g120"><g
           clip-path="url(#clipPath124)"
           id="g122"><path
             id="path128"
             style="fill:none;stroke:#0000ff;stroke-width:20;stroke-linecap:butt;stroke-linejoin:round;stroke-miterlimit:10;stroke-dasharray:none;stroke-opacity:1"
             d="m 2650,2585.83 236.67,8.34 236.66,-25 236.67,37.5 236.67,-37.5 236.66,13.33 236.67,33.33 237.5,-92.5 236.67,131.67 236.66,-125 236.67,30 236.67,126.67 236.66,-340 236.67,442.5 236.67,-427.5 237.5,20.83 236.66,446.67 L 6675,1520.83 6911.67,2891.67 7148.33,1265 7385,762.5" /><path
             id="path130"
             style="fill:none;stroke:#008000;stroke-width:20;stroke-linecap:butt;stroke-linejoin:round;stroke-miterlimit:10;stroke-dasharray:none;stroke-opacity:1"
             d="m 2650,2585.83 946.67,0 236.66,-2.5 236.67,3.34 237.5,-0.84 236.67,0.84 236.66,-2.5 236.67,-4.17 236.67,7.5 236.66,-3.33 236.67,3.33 236.67,-6.67 237.5,-8.33 236.66,18.33 236.67,-9.16 236.67,10.83 236.66,-26.67 L 7385,2550" /><path
             id="path132"
             style="fill:none;stroke:#ff0000;stroke-width:20;stroke-linecap:butt;stroke-linejoin:round;stroke-miterlimit:10;stroke-dasharray:none;stroke-opacity:1"
             d="m 2650,2585.83 236.67,8.34 236.66,-25 236.67,37.5 236.67,-36.67 236.66,13.33 236.67,33.34 237.5,-90 236.67,130.83 236.66,-120.83 236.67,32.5 236.67,132.5 236.66,-325.84 236.67,451.67 236.67,-391.67 237.5,60.84 236.66,520 236.67,-1170.84 236.67,1551.67 236.66,-1261.67 236.67,37.5" /></g></g><g
         transform="scale(10,10)"
         id="g134"><text
           id="text136"
           style="font-variant:normal;font-weight:normal;font-size:16px;font-family:'Courier 10 Pitch';-inkscape-font-specification:Courier;writing-mode:lr-tb;fill:#000000;fill-opacity:1;fill-rule:nonzero;stroke:none"
           transform="matrix(1,0,0,-1,478.833,328.417)"><tspan
             id="tspan138"
             y="0"
             x="0 9.6000004 19.200001 28.799999 38.400002 48 57.599998">h = 0.5</tspan></text>
</g><path
         id="path140"
         style="fill:#ffffff;fill-opacity:1;fill-rule:evenodd;stroke:none"
         d="m 2850,982.5 937.5,0 0,722.5 -937.5,0 0,-722.5 z" /><path
         id="path142"
         style="fill:none;stroke:#ffffff;stroke-width:5;stroke-linecap:butt;stroke-linejoin:round;stroke-miterlimit:10;stroke-dasharray:none;stroke-opacity:1"
         d="m 2850,982.5 0,722.5 937.5,0 0,-722.5 -937.5,0" /><path
         id="path144"
         style="fill:none;stroke:#000000;stroke-width:5;stroke-linecap:butt;stroke-linejoin:round;stroke-miterlimit:10;stroke-dasharray:none;stroke-opacity:1"
         d="m 2850,1705 937.5,0" /><path
         id="path146"
         style="fill:none;stroke:#000000;stroke-width:5;stroke-linecap:butt;stroke-linejoin:round;stroke-miterlimit:10;stroke-dasharray:none;stroke-opacity:1"
         d="m 2850,982.5 937.5,0" /><path
         id="path148"
         style="fill:none;stroke:#000000;stroke-width:5;stroke-linecap:butt;stroke-linejoin:round;stroke-miterlimit:10;stroke-dasharray:none;stroke-opacity:1"
         d="m 3787.5,982.5 0,722.5" /><path
         id="path150"
         style="fill:none;stroke:#000000;stroke-width:5;stroke-linecap:butt;stroke-linejoin:round;stroke-miterlimit:10;stroke-dasharray:none;stroke-opacity:1"
         d="m 2850,982.5 0,722.5" /><path
         id="path152"
         style="fill:none;stroke:#000000;stroke-width:5;stroke-linecap:butt;stroke-linejoin:round;stroke-miterlimit:10;stroke-dasharray:none;stroke-opacity:1"
         d="m 2850,982.5 937.5,0" /><path
         id="path154"
         style="fill:none;stroke:#000000;stroke-width:5;stroke-linecap:butt;stroke-linejoin:round;stroke-miterlimit:10;stroke-dasharray:none;stroke-opacity:1"
         d="m 2850,982.5 0,722.5" /><path
         id="path156"
         style="fill:none;stroke:#000000;stroke-width:5;stroke-linecap:butt;stroke-linejoin:round;stroke-miterlimit:10;stroke-dasharray:none;stroke-opacity:1"
         d="m 2850,1705 937.5,0" /><path
         id="path158"
         style="fill:none;stroke:#000000;stroke-width:5;stroke-linecap:butt;stroke-linejoin:round;stroke-miterlimit:10;stroke-dasharray:none;stroke-opacity:1"
         d="m 2850,982.5 937.5,0" /><path
         id="path160"
         style="fill:none;stroke:#000000;stroke-width:5;stroke-linecap:butt;stroke-linejoin:round;stroke-miterlimit:10;stroke-dasharray:none;stroke-opacity:1"
         d="m 3787.5,982.5 0,722.5" /><path
         id="path162"
         style="fill:none;stroke:#000000;stroke-width:5;stroke-linecap:butt;stroke-linejoin:round;stroke-miterlimit:10;stroke-dasharray:none;stroke-opacity:1"
         d="m 2850,982.5 0,722.5" /><g
         transform="scale(10,10)"
         id="g164"><text
           id="text166"
           style="font-variant:normal;font-weight:normal;font-size:12px;font-family:'Courier 10 Pitch';-inkscape-font-specification:Courier;writing-mode:lr-tb;fill:#000000;fill-opacity:1;fill-rule:nonzero;stroke:none"
           transform="matrix(1,0,0,-1,335.333,152.917)"><tspan
             id="tspan168"
             y="0"
             x="0 7.1999998 14.4">RK4</tspan></text>
</g><g
         id="g170"><g
           clip-path="url(#clipPath174)"
           id="g172"><path
             id="path178"
             style="fill:none;stroke:#0000ff;stroke-width:20;stroke-linecap:butt;stroke-linejoin:round;stroke-miterlimit:10;stroke-dasharray:none;stroke-opacity:1"
             d="m 2926.67,1569.17 386.66,0" /></g></g><g
         transform="scale(10,10)"
         id="g180"><text
           id="text182"
           style="font-variant:normal;font-weight:normal;font-size:12px;font-family:'Courier 10 Pitch';-inkscape-font-specification:Courier;writing-mode:lr-tb;fill:#000000;fill-opacity:1;fill-rule:nonzero;stroke:none"
           transform="matrix(1,0,0,-1,335.333,130.417)"><tspan
             id="tspan184"
             y="0"
             x="0 7.1999998 14.4 21.6 28.799999">Error</tspan></text>
</g><g
         id="g186"><g
           clip-path="url(#clipPath190)"
           id="g188"><path
             id="path194"
             style="fill:none;stroke:#008000;stroke-width:20;stroke-linecap:butt;stroke-linejoin:round;stroke-miterlimit:10;stroke-dasharray:none;stroke-opacity:1"
             d="m 2926.67,1344.17 386.66,0" /></g></g><g
         transform="scale(10,10)"
         id="g196"><text
           id="text198"
           style="font-variant:normal;font-weight:normal;font-size:12px;font-family:'Courier 10 Pitch';-inkscape-font-specification:Courier;writing-mode:lr-tb;fill:#000000;fill-opacity:1;fill-rule:nonzero;stroke:none"
           transform="matrix(1,0,0,-1,335.333,107.917)"><tspan
             id="tspan200"
             y="0"
             x="0 7.1999998 14.4 21.6 28.799999">Exact</tspan></text>
</g><g
         id="g202"><g
           clip-path="url(#clipPath206)"
           id="g204"><path
             id="path210"
             style="fill:none;stroke:#ff0000;stroke-width:20;stroke-linecap:butt;stroke-linejoin:round;stroke-miterlimit:10;stroke-dasharray:none;stroke-opacity:1"
             d="m 2926.67,1119.17 386.66,0" /></g></g></g></g></svg>